<?xml version="1.0" standalone="no"?>
<!DOCTYPE svg PUBLIC "-//W3C//DTD SVG 1.1//EN" "http://www.w3.org/Graphics/SVG/1.1/DTD/svg11.dtd" >
<svg xmlns="http://www.w3.org/2000/svg" xmlns:xlink="http://www.w3.org/1999/xlink" version="1.1">
<metadata></metadata>
<defs>
<font id="preloslabw01-mediumregular" horiz-adv-x="1126" >
<font-face units-per-em="2048" ascent="1536" descent="-512" />
<missing-glyph horiz-adv-x="368" />
<glyph horiz-adv-x="0" />
<glyph unicode="&#xd;" horiz-adv-x="0" />
<glyph horiz-adv-x="0" />
<glyph horiz-adv-x="0" />
<glyph horiz-adv-x="0" />
<glyph unicode="&#x9;" horiz-adv-x="0" />
<glyph unicode="&#xa;" horiz-adv-x="0" />
<glyph unicode=" "  horiz-adv-x="368" />
<glyph unicode="&#x09;" horiz-adv-x="368" />
<glyph unicode="&#xa0;" horiz-adv-x="368" />
<glyph unicode="!" horiz-adv-x="409" d="M113 0v266h184v-266h-184zM113 1434h184l-10 -983h-164z" />
<glyph unicode="&#x22;" horiz-adv-x="819" d="M113 1393h184l-21 -308h-143zM522 1393h185l-21 -308h-143z" />
<glyph unicode="#" horiz-adv-x="1255" d="M117 236l12 122h205l33 308h-205l12 122h205l27 236h133l-27 -236h287l26 236h133l-26 -236h205l-13 -122h-204l-33 -308h205l-13 -122h-205l-24 -236h-133l24 236h-286l-25 -236h-133l25 236h-205zM467 358h287l32 308h-286z" />
<glyph unicode="$" horiz-adv-x="1269" d="M133 51v297h154v-160q115 -27 195.5 -36t152.5 -9q80 0 137 19.5t92 51.5t51.5 72t16.5 83q0 63 -34 105t-85 70.5t-112.5 46t-116.5 34.5q-86 23 -164 57.5t-137.5 85.5t-94 119.5t-34.5 156.5q0 94 33.5 162t94 113t141.5 66.5t175 25.5v186h82v-186 q102 -4 205.5 -19.5t220.5 -50.5v-297h-154v166q-109 23 -179.5 31t-137.5 8q-78 0 -130 -16t-85 -44t-47.5 -63.5t-14.5 -76.5q0 -59 33 -102.5t83 -74t111.5 -50t121.5 -34.5q84 -18 161.5 -49.5t137 -79t95.5 -114t36 -156.5q0 -98 -34 -173t-95.5 -125t-145.5 -77.5 t-182 -31.5v-187h-82v185q-111 4 -228.5 19t-236.5 52z" />
<glyph unicode="%" horiz-adv-x="1556" d="M92 1096q0 133 70.5 209.5t208.5 76.5q135 0 206.5 -76.5t71.5 -209.5t-71.5 -209t-206.5 -76q-137 0 -208 76t-71 209zM207 1096q0 -92 42 -142.5t122 -50.5t120.5 50.5t40.5 142.5t-40.5 142t-120.5 50t-122 -50t-42 -142zM338 0l758 1393h123l-758 -1393h-123z M907 295q0 133 71 210t208 77q135 0 206.5 -77t71.5 -210t-71.5 -209t-206.5 -76q-137 0 -208 76t-71 209zM1022 295q0 -92 42 -142.5t122 -50.5t121 50.5t41 142.5t-41 142t-121 50t-122 -50t-42 -142z" />
<glyph unicode="&#x26;" horiz-adv-x="1443" d="M106 356q0 55 15.5 106.5t53.5 100.5t103.5 97.5t165.5 97.5q-29 33 -58.5 69.5t-54 75.5t-40 82t-15.5 92q0 86 34 149.5t88.5 104.5t124 61.5t143.5 20.5q166 0 262 -82.5t96 -236.5q0 -43 -14.5 -86t-50 -88.5t-98 -92.5t-159.5 -94l359 -352q106 137 137 336h174 q-16 -111 -61 -233t-131 -226l172 -176l-121 -131l-180 186q-86 -72 -202 -114.5t-265 -42.5q-123 0 -213 27.5t-148.5 77.5t-87.5 118.5t-29 152.5zM301 383q0 -41 14.5 -84t50 -79t94 -59.5t144.5 -23.5t173 28t159 93l-395 404q-51 -25 -95.5 -53.5t-76 -61.5t-50 -74 t-18.5 -90zM455 1087q0 -74 41 -132t100 -121q109 55 180.5 118.5t71.5 147.5q0 57 -20.5 94t-50 56.5t-62.5 26.5t-56 7q-63 0 -103 -20.5t-62.5 -51t-30.5 -64.5t-8 -61z" />
<glyph unicode="'" horiz-adv-x="409" d="M113 1393h184l-21 -308h-143z" />
<glyph unicode="(" horiz-adv-x="675" d="M127 696q0 256 91 511t261 472h125q-154 -254 -223.5 -494.5t-69.5 -488.5q0 -246 70 -484.5t223 -498.5h-125q-170 217 -261 473t-91 510z" />
<glyph unicode=")" horiz-adv-x="675" d="M72 -287q152 260 221 499t69 484q0 248 -69.5 488.5t-220.5 494.5h125q170 -217 260 -472t90 -511q0 -254 -90 -510t-260 -473h-125z" />
<glyph unicode="*" horiz-adv-x="839" d="M74 1108l32 106l273 -81l-14 260h108l-12 -260l270 81l33 -106l-279 -41l183 -221l-86 -66l-164 248l-162 -248l-86 66l182 221z" />
<glyph unicode="+" horiz-adv-x="1024" d="M113 465v153h321v324h154v-324h323v-153h-323v-322h-154v322h-321z" />
<glyph unicode="," horiz-adv-x="409" d="M113 0v266h184v-266l-92 -266h-62l41 266h-71z" />
<glyph unicode="-" horiz-adv-x="1024" d="M113 465v153h798v-153h-798z" />
<glyph unicode="." horiz-adv-x="409" d="M113 0v266h184v-266h-184z" />
<glyph unicode="/" horiz-adv-x="1105" d="M92 0l758 1393h164l-758 -1393h-164z" />
<glyph unicode="0" horiz-adv-x="1167" d="M92 707q0 145 21.5 274t77 225.5t150.5 151.5t243 55q147 0 242.5 -55t150.5 -151.5t76.5 -225.5t21.5 -274q0 -147 -21.5 -279.5t-76.5 -232t-150.5 -157.5t-242.5 -58t-242.5 58t-151 157.5t-77 231.5t-21.5 280zM287 707q0 -111 12 -214.5t45 -183.5t91.5 -128 t148.5 -48t147 48t91 128t46.5 183.5t12.5 214.5t-12.5 211t-46.5 175.5t-91 121t-147 45.5t-148.5 -45.5t-91.5 -121t-45 -176t-12 -210.5z" />
<glyph unicode="1" horiz-adv-x="798" d="M41 0v154h246v1069l-236 -19v131l332 68h88v-1249h246v-154h-676z" />
<glyph unicode="2" horiz-adv-x="1085" d="M72 0v178q219 145 354 264t209 214.5t98.5 169t24.5 130.5q0 96 -32 152.5t-77 86.5t-94 39t-84 9q-59 0 -116.5 -10t-129.5 -41v-127h-153v246q55 25 107 44t104.5 31.5t107.5 19.5t121 7q113 0 196 -33.5t137 -90t80.5 -132.5t26.5 -160q0 -215 -156.5 -414.5 t-463.5 -414.5v-4h518v133h154v-297h-932z" />
<glyph unicode="3" horiz-adv-x="1064" d="M61 76v252h154v-146q119 -49 281 -49q100 0 160.5 25.5t93 63.5t43 81t10.5 76q0 111 -80 175t-252 64h-174v154h166q82 0 140.5 22.5t95 58.5t53 82t16.5 93q0 35 -11.5 75t-41 74.5t-82.5 58.5t-137 24q-74 0 -136.5 -14.5t-119.5 -39.5v-141h-154v250 q109 53 219.5 75.5t220.5 22.5q193 0 309.5 -94t116.5 -270q0 -129 -74.5 -211t-189.5 -121v-4q147 -29 226 -122t79 -222q0 -186 -124 -287.5t-363 -101.5q-123 0 -230.5 21.5t-214.5 74.5z" />
<glyph unicode="4" horiz-adv-x="1167" d="M72 399v154q84 92 168 190.5t160.5 204t145 219t124.5 236.5h231v-850h195v-154h-195v-245h133v-154h-450v154h133v245h-645zM262 553h455v649h-4q-94 -182 -208 -341t-243 -308z" />
<glyph unicode="5" horiz-adv-x="1105" d="M82 82v235h154v-131q74 -33 137 -43t129 -10q150 0 233.5 83t83.5 224q0 51 -14 102.5t-47 93.5t-88.5 68.5t-137.5 26.5q-92 0 -155.5 -33.5t-120.5 -101.5l-135 12l33 785h809v-299h-154v135h-496l-28 -467l4 -2q53 55 128 93t179 38q195 0 306.5 -114.5t111.5 -325.5 q0 -231 -135.5 -351t-366.5 -120q-117 0 -217 24.5t-213 77.5z" />
<glyph unicode="6" d="M92 614q0 229 46 383t126 246t185.5 131t224.5 39q100 0 173 -15.5t144 -37.5v-264h-153v145q-37 8 -71 13.5t-79 5.5q-109 0 -186.5 -48.5t-127.5 -123t-74 -163.5t-24 -171l5 -2q59 80 144 130t183 50q201 0 313.5 -125t112.5 -356q0 -111 -34.5 -198t-95 -148.5 t-143.5 -93t-181 -31.5q-139 0 -233.5 53t-151 142t-80 203t-23.5 236zM291 606q-4 -90 4 -175t37.5 -150.5t86 -106.5t148.5 -41q55 0 104.5 20.5t86.5 60.5t59.5 99.5t22.5 137.5q0 51 -11.5 108t-42 103.5t-85 77t-140.5 30.5q-84 0 -152.5 -47t-117.5 -117z" />
<glyph unicode="7" horiz-adv-x="1003" d="M82 1096v297h850v-133q-78 -127 -156 -271.5t-147.5 -302.5t-123.5 -330t-85 -356h-205q23 145 76 309t123.5 327t152.5 315.5t162 273.5v4h-493v-133h-154z" />
<glyph unicode="8" d="M72 344q0 70 24.5 126t67.5 100t102.5 78t128.5 59v4q-61 27 -113.5 59.5t-90 73.5t-58 94t-20.5 119q0 86 35.5 152.5t97 111.5t144.5 68.5t177 23.5q92 0 173 -23.5t141.5 -67.5t96.5 -109.5t36 -147.5q0 -63 -20.5 -111.5t-57.5 -87.5t-90 -70.5t-117 -60.5v-4 q72 -31 131.5 -66.5t102.5 -79.5t67.5 -98.5t24.5 -124.5q0 -94 -37 -165.5t-102.5 -119.5t-156.5 -72.5t-202 -24.5q-106 0 -195.5 22.5t-154 68.5t-100 114.5t-35.5 158.5zM260 362q0 -47 16.5 -91t52.5 -77.5t95 -55t145 -21.5q82 0 139.5 19.5t91.5 51t49 73.5t15 87 q0 63 -29.5 108.5t-77.5 78t-106.5 56t-113.5 46.5q-53 -18 -102.5 -43t-88.5 -57.5t-62.5 -76t-23.5 -98.5zM297 1059q0 -53 23.5 -94t63.5 -72t91 -53.5t109 -38.5q51 18 95 40.5t78 52.5t53 67.5t19 87.5q0 63 -25.5 106t-65.5 69.5t-88 38t-93 11.5q-41 0 -87 -11.5 t-84 -36t-63.5 -65.5t-25.5 -102z" />
<glyph unicode="9" d="M92 942q0 111 34 198t95.5 148.5t144.5 93t181 31.5q139 0 233 -53t150.5 -142.5t80 -203t23.5 -236.5q0 -231 -46 -384.5t-126 -246t-185.5 -130t-223.5 -37.5q-100 0 -174 14t-146 37v266h154v-145q39 -10 72.5 -14.5t76.5 -4.5q109 0 186.5 48t128 123t74 164 t25.5 171l-4 2q-59 -82 -144.5 -131t-185.5 -49q-199 0 -311.5 125t-112.5 356zM287 942q0 -53 11 -109.5t42 -103.5t85 -77.5t140 -30.5q84 0 152 46.5t117 116.5q4 90 -4.5 175t-38 152t-86 108t-148.5 41q-55 0 -104.5 -20.5t-86 -60.5t-58 -99.5t-21.5 -137.5z" />
<glyph unicode=":" horiz-adv-x="409" d="M113 0v266h184v-266h-184zM113 676v266h184v-266h-184z" />
<glyph unicode=";" horiz-adv-x="409" d="M113 0v266h184v-266l-92 -266h-62l41 266h-71zM113 676v266h184v-266h-184z" />
<glyph unicode="&#x3c;" horiz-adv-x="983" d="M113 455v112l757 385v-164l-563 -276l563 -276v-164z" />
<glyph unicode="=" horiz-adv-x="1024" d="M113 260v154h798v-154h-798zM113 670v153h798v-153h-798z" />
<glyph unicode="&#x3e;" horiz-adv-x="983" d="M113 72v164l563 276l-563 276v164l757 -385v-112z" />
<glyph unicode="?" horiz-adv-x="983" d="M92 1044v289q86 35 190.5 57.5t209.5 22.5q121 0 198.5 -33.5t121.5 -86t61.5 -116t17.5 -122.5q0 -90 -27.5 -152.5t-70.5 -107.5t-91.5 -79t-91.5 -66t-70.5 -69.5t-27.5 -88.5v-62h-164v62q0 68 23.5 116.5t58.5 86.5t77 69t81 65.5t66.5 76.5t35.5 100q8 57 -2 100 q-12 45 -39.5 71.5t-62.5 40t-71 17.5t-64 4q-35 0 -87.5 -9t-117.5 -32v-154h-154zM338 0v266h184v-266h-184z" />
<glyph unicode="@" horiz-adv-x="1658" d="M41 518q0 178 62.5 328.5t173 259t262 169t329.5 60.5q156 0 292 -48t237.5 -136t161 -211t59.5 -272q0 -109 -32 -206t-95.5 -170t-157.5 -115t-219 -42h-123v80h-2q-53 -51 -112.5 -72.5t-137.5 -21.5q-119 0 -186.5 63.5t-67.5 167.5q0 68 26 115t71 76.5t105.5 42 t131.5 12.5h172v74q0 78 -40 114.5t-140 36.5q-63 0 -154 -22v-113h-120v213q74 20 156.5 31.5t148.5 11.5q72 0 127 -11t92 -41t56.5 -81t19.5 -131v-428q106 0 176.5 41t111.5 102.5t57.5 133t16.5 133.5q0 129 -50 233t-136 178t-201 114t-244 40q-154 0 -283.5 -51.5 t-224 -144.5t-147.5 -224t-53 -289q0 -143 48 -264t134 -209t205 -137t260 -49l-10 -105q-166 0 -305.5 58.5t-238.5 161t-155.5 241.5t-56.5 303zM631 365q0 -61 43 -96.5t121 -35.5q68 0 119 21.5t77 44.5v211h-164q-111 0 -153.5 -38t-42.5 -107z" />
<glyph unicode="A" horiz-adv-x="1433" d="M41 0v154h129l383 1085h-150v154h459l418 -1239h113v-154h-482v154h158l-90 270h-522l-97 -270h152v-154h-471zM498 567h446l-217 652h-2z" />
<glyph unicode="B" horiz-adv-x="1290" d="M41 0v154h133v1085h-133v154h696q209 0 314.5 -96.5t105.5 -258.5q0 -119 -59.5 -202.5t-167.5 -118.5v-4q129 -29 198.5 -118t69.5 -222q0 -174 -105.5 -273.5t-314.5 -99.5h-737zM369 154h379q117 0 181 60t64 179q0 113 -67.5 177.5t-198.5 64.5h-358v-481zM369 788 h348q117 0 176 58.5t59 167.5q0 100 -59 162.5t-176 62.5h-348v-451z" />
<glyph unicode="C" horiz-adv-x="1249" d="M92 707q0 145 25.5 274t92 225.5t182.5 151.5t294 55q119 0 234.5 -16.5t246.5 -55.5v-286h-153v166q-104 23 -174 31t-140 8q-121 0 -198.5 -45.5t-123.5 -121t-63.5 -176t-17.5 -210.5q0 -119 17.5 -223.5t63.5 -182.5t124 -123t198 -45q70 0 139.5 6t174.5 31v168h153 v-287q-131 -39 -246.5 -55t-234.5 -16q-178 0 -294 57t-182.5 156.5t-92 231.5t-25.5 282z" />
<glyph unicode="D" horiz-adv-x="1351" d="M41 0v154h133v1085h-133v154h629q172 0 285.5 -52.5t181 -144.5t95.5 -218t28 -271q0 -147 -28 -276.5t-95.5 -224.5t-181 -150.5t-285.5 -55.5h-629zM369 154h301q117 0 191.5 45t117.5 120.5t59.5 176t16.5 211.5t-16.5 208t-59.5 169.5t-118 113.5t-191 41h-301v-1085 z" />
<glyph unicode="E" horiz-adv-x="1167" d="M41 0v154h133v1085h-133v154h1034v-297h-153v143h-553v-440h604v-154h-604v-491h553v143h153v-297h-1034z" />
<glyph unicode="F" horiz-adv-x="1136" d="M41 0v154h133v1085h-133v154h1014v-297h-154v143h-532v-481h583v-154h-583v-450h133v-154h-461z" />
<glyph unicode="G" horiz-adv-x="1269" d="M92 707q0 145 25.5 274t92 225.5t182.5 151.5t294 55q119 0 234.5 -16.5t246.5 -55.5v-286h-153v166q-104 23 -174 31t-140 8q-121 0 -198.5 -45.5t-123.5 -121t-63.5 -175.5t-17.5 -211q0 -115 20.5 -217.5t68.5 -179.5t125 -122t189 -45q78 0 146.5 18.5t126.5 49.5 v332h-266v153h460v-606q-106 -45 -219.5 -77.5t-261.5 -32.5q-172 0 -285.5 58t-182 157.5t-97.5 231.5t-29 280z" />
<glyph unicode="H" horiz-adv-x="1392" d="M41 0v154h133v1085h-133v154h461v-154h-133v-440h655v440h-133v154h461v-154h-133v-1085h133v-154h-461v154h133v491h-655v-491h133v-154h-461z" />
<glyph unicode="I" horiz-adv-x="542" d="M41 0v154h133v1085h-133v154h461v-154h-133v-1085h133v-154h-461z" />
<glyph unicode="J" horiz-adv-x="727" d="M35 -6l18 153q35 -4 62.5 -7t58.5 -3q92 0 138 48t46 163v891h-133v154h461v-154h-133v-891q0 -102 -22.5 -173t-64.5 -114t-103.5 -62t-137.5 -19q-53 0 -101 4t-89 10z" />
<glyph unicode="K" horiz-adv-x="1392" d="M41 0v154h133v1085h-133v154h461v-154h-133v-604l579 604h-139v154h522v-154h-149l-420 -428l452 -657h138v-154h-533v154h148l-351 520l-247 -250v-270h133v-154h-461z" />
<glyph unicode="L" d="M41 0v154h133v1085h-133v154h461v-154h-133v-1085h542v143h154v-297h-1024z" />
<glyph unicode="M" horiz-adv-x="1720" d="M41 0v154h133v1085h-133v154h369l458 -1069h4l443 1069h364v-154h-133v-1085h133v-154h-460v154h133v880h-4l-424 -1034h-127l-441 1034h-4v-880h140v-154h-451z" />
<glyph unicode="N" horiz-adv-x="1413" d="M41 0v154h133v1085h-133v154h321l693 -1065h4v911h-137v154h450v-154h-133v-1239h-201l-682 1038h-4v-884h140v-154h-451z" />
<glyph unicode="O" horiz-adv-x="1372" d="M92 707q0 145 25.5 274t92 225.5t182.5 151.5t294 55t293 -55t182.5 -151.5t93 -225.5t25.5 -274q0 -147 -25.5 -279.5t-93 -232t-182.5 -157.5t-293 -58t-294 58t-182.5 157.5t-92 231.5t-25.5 280zM297 707q0 -111 14.5 -214.5t55.5 -183.5t117.5 -128t201.5 -48 t201 48t118 128t56 183.5t14 214.5t-14 211t-56 175.5t-118 121t-201 45.5t-201.5 -45.5t-117.5 -121t-55.5 -176t-14.5 -210.5z" />
<glyph unicode="P" horiz-adv-x="1269" d="M41 0v154h133v1085h-133v154h707q207 0 318.5 -113t111.5 -297q0 -193 -111 -301.5t-319 -108.5h-379v-419h133v-154h-461zM369 727h358q117 0 183.5 63.5t66.5 192.5q0 119 -66.5 187.5t-183.5 68.5h-358v-512z" />
<glyph unicode="Q" horiz-adv-x="1372" d="M92 707q0 145 25.5 274t92 225.5t182.5 151.5t294 55t293 -55t182.5 -151.5t93 -225.5t25.5 -274q0 -141 -25.5 -259t-81 -205t-144.5 -139.5t-216 -58.5q14 -29 61.5 -46t110 -25.5t133.5 -9.5h19q60 0 112 5v-174q-71 -8 -138 -8q-28 0 -55 1q-93 5 -172 27.5 t-141.5 62.5t-99.5 102q-164 6 -269.5 67.5t-169 159.5t-88 227.5t-24.5 272.5zM297 707q0 -111 14.5 -214.5t55.5 -183.5t117.5 -128t201.5 -48t201 48t118 128t56 183.5t14 214.5t-14 211t-56 175.5t-118 121t-201 45.5t-201.5 -45.5t-117.5 -121t-55.5 -176t-14.5 -210.5 z" />
<glyph unicode="R" horiz-adv-x="1331" d="M41 0v154h133v1085h-133v154h707q104 0 184 -31t134 -85t83 -131t29 -169q0 -147 -79 -253t-220 -130l311 -440h100v-154h-481v154h135l-278 409h-297v-409h133v-154h-461zM369 717h348q117 0 188.5 66.5t71.5 193.5q0 121 -66.5 191.5t-183.5 70.5h-358v-522z" />
<glyph unicode="S" horiz-adv-x="1187" d="M92 51v297h154v-160q115 -27 195.5 -36t152.5 -9q80 0 137 19.5t92 51.5t51.5 72t16.5 83q0 63 -34 105t-85 70.5t-112.5 46t-116.5 34.5q-86 23 -165 57.5t-140.5 85.5t-98.5 119.5t-37 156.5q0 98 38 169t103.5 115t152.5 64.5t188 20.5q117 0 228.5 -16.5t242.5 -55.5 v-297h-154v166q-109 23 -179.5 31t-137.5 8q-78 0 -130.5 -16t-85 -44t-47 -63.5t-14.5 -76.5q0 -59 34 -102.5t87 -74t115.5 -50t122.5 -34.5q84 -18 161.5 -49.5t137 -79t95.5 -114t36 -156.5q0 -104 -38 -181t-105.5 -127t-160 -75.5t-198.5 -25.5q-117 0 -244 16 t-258 55z" />
<glyph unicode="T" horiz-adv-x="1187" d="M82 1096v297h1024v-297h-154v143h-262v-1085h133v-154h-461v154h134v1085h-260v-143h-154z" />
<glyph unicode="U" horiz-adv-x="1392" d="M41 1239v154h461v-154h-133v-747q0 -57 9 -121t43 -116t100.5 -87t178.5 -35q106 0 171 35t99 87t44 115.5t10 121.5v747h-133v154h461v-154h-133v-747q0 -268 -137.5 -390t-385.5 -122q-250 0 -386 121.5t-136 390.5v747h-133z" />
<glyph unicode="V" horiz-adv-x="1413" d="M41 1239v154h502v-154h-185l363 -1049h2l342 1049h-184v154h491v-154h-108l-428 -1249h-250l-443 1249h-102z" />
<glyph unicode="W" horiz-adv-x="2007" d="M41 1239v154h502v-154h-183l261 -1010h2l290 1164h209l301 -1164h2l252 1010h-182v154h471v-154h-98l-328 -1249h-260l-274 1048h-5l-264 -1048h-262l-334 1249h-100z" />
<glyph unicode="X" horiz-adv-x="1433" d="M41 0v154h125l409 569l-374 516h-140v154h527v-154h-129l295 -418l288 418h-141v154h471v-154h-125l-381 -526l406 -559h121v-154h-539v154h162l-324 462l-321 -462h151v-154h-481z" />
<glyph unicode="Y" horiz-adv-x="1351" d="M41 1239v154h512v-154h-186l321 -604h4l320 604h-185v154h484v-154h-111l-428 -788v-297h133v-154h-461v154h134v297l-418 788h-119z" />
<glyph unicode="Z" horiz-adv-x="1146" d="M82 0v143l729 1092v4h-545v-143h-153v297h931v-144l-722 -1091v-4h600v143h153v-297h-993z" />
<glyph unicode="[" horiz-adv-x="614" d="M113 -287v1966h430v-112h-236v-1741h236v-113h-430z" />
<glyph unicode="\" horiz-adv-x="1105" d="M92 1393h164l758 -1393h-164z" />
<glyph unicode="]" horiz-adv-x="614" d="M72 -174h235v1741h-235v112h430v-1966h-430v113z" />
<glyph unicode="^" horiz-adv-x="778" d="M113 1044l215 390h121l217 -390h-103l-176 285l-172 -285h-102z" />
<glyph unicode="_" horiz-adv-x="1024" d="M113 -123h798v-113h-798v113z" />
<glyph unicode="`" horiz-adv-x="593" d="M168 1434h160l123 -287h-103z" />
<glyph unicode="a" horiz-adv-x="1095" d="M84 287q0 92 37 151.5t96 94t137 48t158 13.5h225v102q0 100 -54 147.5t-181 47.5q-37 0 -85 -4t-116 -15v-124h-154v253q104 20 207 31.5t189 11.5q92 0 162.5 -15t118.5 -54t73 -103.5t25 -164.5v-553h133v-154h-318v102h-4q-68 -57 -141.5 -89.5t-175.5 -32.5 q-160 0 -246 79.5t-86 227.5zM266 297q0 -82 57.5 -128t157.5 -46q88 0 154.5 28.5t101.5 57.5v272h-198q-147 0 -210 -44t-63 -140z" />
<glyph unicode="b" horiz-adv-x="1146" d="M41 0v154h133v1126h-133v154h317v-512h4q53 53 137.5 87.5t176.5 34.5q106 0 179 -40.5t118 -113.5t63.5 -170t18.5 -208t-20.5 -208t-66.5 -170t-121 -113.5t-181 -40.5q-88 0 -171 31.5t-143 84.5h-4l-33 -96h-274zM358 219q31 -25 95.5 -55.5t150.5 -30.5q74 0 124 31 t79 82t41 119.5t12 146.5q0 76 -12 145.5t-41 120.5t-79 82t-124 31q-86 0 -150.5 -31t-95.5 -57v-584z" />
<glyph unicode="c" horiz-adv-x="1003" d="M92 512q0 119 25.5 217t85 168t155 108.5t236.5 38.5q96 0 176 -12t172 -35v-249h-154v122q-66 16 -113.5 18.5t-80.5 2.5q-80 0 -138.5 -27.5t-96 -78t-55 -120t-17.5 -153.5t17.5 -153.5t55 -120t96 -78t138.5 -27.5q27 0 56.5 1t66.5 4t83 11.5t107 24.5l35 -149 q-92 -23 -172 -34t-176 -11q-141 0 -236.5 38.5t-155 108.5t-85 168t-25.5 217z" />
<glyph unicode="d" horiz-adv-x="1146" d="M92 512q0 111 20.5 208t66.5 170t120 113.5t182 40.5q88 0 168 -32.5t135 -85.5h4v354h-133v154h318v-1280h133v-154h-318v102h-4q-55 -53 -138 -87.5t-175 -34.5q-109 0 -180.5 40.5t-116.5 113.5t-63.5 170t-18.5 208zM287 512q0 -78 11 -146.5t41 -119.5t79 -82 t125 -31q86 0 149.5 31t95.5 55v584q-33 27 -96 57.5t-149 30.5q-76 0 -125 -31t-79 -82t-41 -120.5t-11 -145.5z" />
<glyph unicode="e" horiz-adv-x="1085" d="M92 512q0 119 26.5 217t86 168t155 108.5t234.5 38.5q162 0 250 -55t126 -138t38 -182.5t-17 -187.5h-704q2 -78 21.5 -141.5t60.5 -109.5t105.5 -71.5t154.5 -25.5q76 0 152.5 6t166.5 35l25 -149q-98 -27 -183 -36t-186 -9q-141 0 -239.5 38.5t-159 108.5t-87 168 t-26.5 217zM287 598h524q8 41 8 82q0 12 -1 26q-3 54 -27.5 97t-74.5 70.5t-132 27.5q-78 0 -132.5 -23.5t-89 -63.5t-53 -96t-22.5 -120z" />
<glyph unicode="f" horiz-adv-x="696" d="M41 891v121l154 12v127q0 74 14 127t49 88t92.5 51.5t141.5 16.5q76 0 163 -17l-18 -143q-33 6 -57.5 8t-47.5 2q-90 0 -121.5 -30.5t-31.5 -116.5v-113h246v-133h-246v-737h153v-154h-471v154h134v737h-154z" />
<glyph unicode="g" horiz-adv-x="1136" d="M61 -164q0 70 42 125t135 102v5q-47 27 -66 70q-12 28 -12 59q0 15 3 31q9 48 43 95.5t91 82.5v4q-78 39 -124 112.5t-46 173.5q0 170 111.5 259t304.5 89q41 0 76.5 -6t64.5 -14h360v-113h-198v-4q63 -41 81.5 -99t18.5 -112q0 -86 -30.5 -149.5t-85 -105.5t-128 -62.5 t-159.5 -20.5q-31 0 -72 5.5t-76 17.5q-29 -31 -43 -62.5t-13 -59.5t18.5 -46t56.5 -20l352 -19q160 -8 231.5 -74.5t71.5 -171.5q0 -174 -140.5 -266t-447.5 -92q-209 0 -314.5 64.5t-105.5 201.5zM219 -133q0 -170 297 -170q74 0 139.5 11t113.5 36t76.5 61.5t28.5 88.5 q0 47 -35.5 81.5t-131.5 38.5l-369 21q-49 -35 -84 -72t-35 -96zM307 696q0 -104 63.5 -157.5t172.5 -53.5q104 0 166.5 54.5t62.5 156.5q0 104 -62.5 161.5t-166.5 57.5q-117 0 -176.5 -57t-59.5 -162z" />
<glyph unicode="h" horiz-adv-x="1208" d="M41 0v154h133v1126h-133v154h317v-553h4q74 72 165 117.5t200 45.5q154 0 230.5 -88t76.5 -249v-553h133v-154h-440v154h123v512q0 100 -45 162.5t-160 62.5q-45 0 -87 -12.5t-79 -30t-67.5 -37.5t-53.5 -39v-618h123v-154h-440z" />
<glyph unicode="i" horiz-adv-x="532" d="M41 0v154h133v716h-133v154h317v-870h134v-154h-451zM174 1178v256h184v-256h-184z" />
<glyph unicode="j" horiz-adv-x="491" d="M-82 -416l16 144q35 -4 59.5 -7.5t47.5 -3.5q88 0 121 32t33 118v1003h-154v154h338v-1174q0 -145 -64.5 -212.5t-232.5 -67.5q-37 0 -80 4t-84 10zM195 1178v256h184v-256h-184z" />
<glyph unicode="k" horiz-adv-x="1228" d="M41 0v154h133v1126h-133v154h317v-908l453 344h-115v154h471v-154h-147l-283 -215l328 -501h123v-154h-471v154h117l-252 401l-224 -170v-231h134v-154h-451z" />
<glyph unicode="l" horiz-adv-x="532" d="M41 0v154h133v1126h-133v154h317v-1280h134v-154h-451z" />
<glyph unicode="m" horiz-adv-x="1822" d="M41 0v154h133v716h-133v154h317v-143h4q53 57 125 104t164 53q26 3 50.5 3t48.5 -3q170 -18 227 -174q72 80 165 130t199 50q154 0 231 -88t77 -249v-553h133v-154h-441v154h123v512q0 100 -47 162.5t-157 62.5q-41 0 -78 -12.5t-70 -30t-61.5 -39t-53.5 -39.5 q6 -47 7 -96v-520h122v-154h-430v154h123v518q-2 49 -13 89t-36 68.5t-62.5 45t-93.5 16.5q-82 0 -145 -41t-111 -78v-618h123v-154h-440z" />
<glyph unicode="n" horiz-adv-x="1208" d="M41 0v154h133v716h-133v154h317v-143h4q74 72 165 117.5t200 45.5q154 0 230.5 -88t76.5 -249v-553h133v-154h-440v154h123v512q0 100 -45 162.5t-160 62.5q-45 0 -87 -12.5t-79 -30t-67.5 -37.5t-53.5 -39v-618h123v-154h-440z" />
<glyph unicode="o" d="M92 512q0 119 25.5 217t81 168t145.5 108.5t219 38.5t218 -38.5t145.5 -108.5t82 -168t25.5 -217t-25.5 -217t-82 -168t-145.5 -108.5t-218 -38.5t-219 38.5t-145.5 108.5t-81 168t-25.5 217zM287 512q0 -80 13 -149.5t45 -121t85 -80t133 -28.5t133.5 28.5t85 80t45 121 t13.5 149.5t-13.5 149.5t-45 121t-85 80t-133.5 28.5t-133 -28.5t-85 -80t-45 -121t-13 -149.5z" />
<glyph unicode="p" horiz-adv-x="1146" d="M41 -256h133v1126h-133v154h317v-102h4q53 53 137.5 87.5t176.5 34.5q106 0 179 -40.5t118 -113.5t63.5 -170t18.5 -208t-20.5 -208t-66.5 -170t-121 -113.5t-181 -40.5q-88 0 -169 31.5t-135 84.5h-4v-352h134v-154h-451v154zM358 219q31 -25 95.5 -55.5t150.5 -30.5 q74 0 124 31t79 82t41 119.5t12 146.5q0 76 -12 145.5t-41 120.5t-79 82t-124 31q-86 0 -150.5 -31t-95.5 -57v-584z" />
<glyph unicode="q" horiz-adv-x="1085" d="M92 512q0 111 20.5 208t66.5 170t120 113.5t182 40.5q88 0 171 -32.5t143 -85.5h4l32 102h142v-1284h133v-154h-451v154h133v358h-4q-55 -53 -138 -87.5t-175 -34.5q-109 0 -180.5 40.5t-116.5 113.5t-63.5 170t-18.5 208zM287 512q0 -78 11 -146.5t41 -119.5t79 -82 t125 -31q86 0 149.5 31t95.5 55v584q-33 27 -96 57.5t-149 30.5q-76 0 -125 -31t-79 -82t-41 -120.5t-11 -145.5z" />
<glyph unicode="r" horiz-adv-x="819" d="M41 0v154h133v716h-133v154h317v-164h4q31 35 72 68t90 59.5t105.5 41.5t118.5 15v-174q-57 0 -113.5 -11t-108 -28.5t-94.5 -38t-74 -40.5v-598h154v-154h-471z" />
<glyph unicode="s" horiz-adv-x="983" d="M82 25v251h154v-124q80 -16 153.5 -20.5t112.5 -4.5q70 0 112.5 18.5t65 43t30 50t7.5 40.5q0 27 -10.5 49t-37 40.5t-71.5 35t-113 28.5q-82 14 -153.5 38t-124.5 60.5t-84 92t-31 135.5q0 147 98.5 216.5t280.5 69.5q119 0 218 -12t192 -35v-249h-154v124 q-78 16 -143.5 19.5t-102.5 3.5q-70 0 -109.5 -16.5t-61 -38t-28 -44t-6.5 -34.5q0 -25 8.5 -47.5t32 -42t66.5 -35.5t113 -31q80 -18 153.5 -39.5t129 -56.5t89 -87t33.5 -132q0 -154 -99.5 -232.5t-279.5 -78.5q-121 0 -234.5 11t-205.5 34z" />
<glyph unicode="t" horiz-adv-x="768" d="M41 891v121l154 12l22 287h162v-287h287v-133h-287v-563q0 -98 37 -149.5t137 -51.5q23 0 47.5 3t56.5 7l19 -143q-41 -6 -94.5 -10t-89.5 -4q-158 0 -227.5 71.5t-69.5 245.5v594h-154z" />
<glyph unicode="u" horiz-adv-x="1208" d="M41 870v154h317v-666q0 -100 46.5 -162.5t158.5 -62.5q43 0 85 12.5t79 30t68.5 37.5t54.5 37v620h-164v154h348v-870h133v-154h-317v143h-4q-74 -74 -165 -118.5t-200 -44.5q-154 0 -230.5 88t-76.5 249v553h-133z" />
<glyph unicode="v" horiz-adv-x="1185" d="M41 870v154h446v-154h-149l270 -692h4l260 692h-145v154h418v-154h-88l-352 -880h-222l-350 880h-92z" />
<glyph unicode="w" horiz-adv-x="1656" d="M41 870v154h446v-154h-161l206 -671h5l229 825h154l239 -836h4l183 682h-148v154h418v-154h-90l-271 -880h-198l-228 721h-4l-211 -721h-196l-289 880h-88z" />
<glyph unicode="x" horiz-adv-x="1245" d="M41 0v154h104l332 383l-303 333h-113v154h480v-154h-115l238 -272l229 272h-105v154h396v-154h-111l-317 -354l325 -362h123v-154h-489v154h114l-256 295l-249 -295h120v-154h-403z" />
<glyph unicode="y" horiz-adv-x="1185" d="M41 870v154h446v-154h-149l280 -712h5l249 712h-145v154h418v-154h-88l-369 -927q-33 -82 -73 -150.5t-90 -118t-111.5 -77t-134.5 -27.5q-35 0 -76 4t-74 10l16 150q25 -6 50.5 -8t44.5 -2q51 0 93 22.5t73.5 58t55 80.5t40.5 90l-369 895h-92z" />
<glyph unicode="z" horiz-adv-x="962" d="M55 0v143l604 734v4h-434v-133h-153v276h813v-143l-598 -734v-4h471v133h153v-276h-856z" />
<glyph unicode="{" horiz-adv-x="696" d="M113 645v103q53 8 82.5 28.5t43 52t15.5 73.5t2 91q0 92 -10 192.5t-10 194.5q0 100 29.5 159.5t81.5 90.5t123 40t155 9v-82q-37 0 -72 -4t-62.5 -25.5t-44 -66.5t-16.5 -129q0 -47 4 -102.5t8 -112.5t8.5 -113.5t4.5 -103.5q0 -61 -13.5 -102t-38 -69t-59.5 -44 t-76 -27v-4q41 -10 76 -26.5t59.5 -44t38 -68.5t13.5 -102q0 -47 -4.5 -103.5t-8.5 -114t-8 -113t-4 -102.5q0 -84 16.5 -130t44 -67.5t62.5 -24.5t72 -3v-82q-84 0 -155 9.5t-123 40t-81.5 90t-29.5 159.5q0 94 10 194.5t10 192.5q0 49 -2 91t-15.5 74t-43 52.5t-82.5 28.5 z" />
<glyph unicode="|" horiz-adv-x="348" d="M113 -205v1802h123v-1802h-123z" />
<glyph unicode="}" horiz-adv-x="696" d="M72 -205q37 0 71.5 3t62 24.5t44 68t16.5 129.5q0 47 -4 102.5t-8 113t-8 114t-4 103.5q0 61 13 102t37.5 68.5t58.5 44t75 26.5v4q-41 10 -75 26.5t-58.5 44.5t-37.5 69t-13 102q0 47 4 103.5t8 113.5t8 112.5t4 102.5q0 84 -16.5 129t-44 66.5t-62 25.5t-71.5 4v82 q84 0 154.5 -9t122.5 -40t82 -90t30 -160q0 -94 -10.5 -194.5t-10.5 -192.5q0 -49 2 -91t15.5 -73.5t43 -52t83.5 -28.5v-103q-53 -8 -83 -28.5t-43.5 -52.5t-15.5 -73.5t-2 -91.5q0 -92 10.5 -192.5t10.5 -194.5q0 -100 -30 -159.5t-82 -90t-122.5 -40t-154.5 -9.5v82z" />
<glyph unicode="~" horiz-adv-x="942" d="M86 604q59 98 112.5 138t106.5 40q37 0 89 -16t106.5 -36.5t101.5 -37t74 -16.5q29 0 60.5 11t72.5 73l51 -58q-35 -68 -72.5 -105.5t-89.5 -43.5q-10 -2 -20 -1t-23 3q-33 6 -80 22.5t-97 34t-96 30.5t-73 13q-29 0 -63.5 -15t-100.5 -83z" />
<glyph unicode="&#xa1;" horiz-adv-x="409" d="M113 -410l10 983h164l10 -983h-184zM113 758v266h184v-266h-184z" />
<glyph unicode="&#xa2;" horiz-adv-x="1044" d="M113 512q0 115 32.5 211t94 165.5t149.5 109.5t199 44v187h82v-189q84 -4 150.5 -22.5t142.5 -50.5l-23 -144q-78 29 -137.5 45.5t-132.5 20.5v-756q74 4 133 20.5t137 45.5l23 -144q-76 -33 -142.5 -51t-150.5 -22v-187h-82v185q-111 4 -199 43.5t-149.5 109.5t-94 166 t-32.5 213zM307 512q0 -78 18.5 -143.5t54.5 -115.5t88 -80t120 -36v748q-68 -6 -120 -36t-88 -80t-54.5 -115.5t-18.5 -141.5z" />
<glyph unicode="&#xa3;" horiz-adv-x="1187" d="M72 0v164h102v491h-102v93h102v296q0 98 36 169t99.5 115t149.5 64.5t186 20.5q129 0 241.5 -22.5t229.5 -69.5v-277h-153v146q-90 35 -168 47t-150 12q-80 0 -135 -17.5t-89 -46t-48.5 -69.5t-14.5 -86v-282h471v-93h-471v-491h605v133h153v-297h-1044z" />
<glyph unicode="&#xa4;" horiz-adv-x="1050" d="M143 928l17 16l162 -184q41 35 93 54.5t111 19.5q57 0 109.5 -19.5t93.5 -54.5l160 184l18 -16l-159 -183q47 -45 74.5 -105t27.5 -130t-26.5 -130.5t-73.5 -103.5l155 -176l-18 -18l-158 178q-41 -35 -93 -53.5t-110 -18.5q-59 0 -111.5 18.5t-92.5 53.5l-156 -178 l-19 18l156 176q-47 45 -72.5 104.5t-25.5 129.5t25.5 129t72.5 104zM229 510q0 -61 23.5 -114.5t64.5 -94.5t94.5 -64.5t114.5 -23.5t115.5 23.5t95.5 64.5t64.5 94.5t23.5 114.5t-23.5 115.5t-64.5 95.5t-95 64.5t-116 23.5q-61 0 -114.5 -23.5t-94.5 -64.5t-64.5 -95.5 t-23.5 -115.5z" />
<glyph unicode="&#xa5;" horiz-adv-x="1351" d="M41 1239v154h512v-154h-176l311 -584h4l309 584h-174v154h484v-154h-111l-385 -707h301v-92h-344v-286h133v-154h-461v154h134v286h-342v92h299l-385 707h-109z" />
<glyph unicode="&#xa6;" horiz-adv-x="348" d="M113 -205v819h123v-819h-123zM113 778v819h123v-819h-123z" />
<glyph unicode="&#xa7;" horiz-adv-x="1228" d="M123 717q0 115 49 196.5t135 128.5q-78 53 -126 129t-48 181q0 98 38 168.5t103.5 114.5t152.5 64.5t187 20.5q143 0 264 -34.5t207 -88.5l-77 -153q-109 57 -207.5 79.5t-186.5 22.5q-80 0 -133 -16.5t-84.5 -43t-45 -61t-13.5 -73.5q0 -61 39 -105.5t94 -74t116.5 -48 t108.5 -28.5q84 -20 161 -51t134.5 -78t91 -114t33.5 -157q0 -117 -50 -198.5t-136 -128.5q78 -53 127 -128t49 -180q0 -100 -38 -169.5t-103.5 -113.5t-152.5 -64.5t-187 -20.5q-143 0 -264 34.5t-207 88.5l75 151q109 -57 208.5 -78.5t187.5 -21.5q80 0 133 15.5t84.5 42 t45 62.5t13.5 74q0 61 -39 104.5t-94 73t-116.5 48t-108.5 30.5q-86 20 -162 51t-133.5 78.5t-91 114t-33.5 156.5zM328 727q0 -57 28.5 -97t70.5 -65.5t90 -41t87 -25.5t78 -20.5t78 -26.5q78 35 114.5 100t36.5 135q0 61 -34.5 102t-85 68t-107.5 43.5t-100 26.5 q-29 2 -60.5 7t-60.5 13q-72 -35 -103.5 -96.5t-31.5 -122.5z" />
<glyph unicode="&#xa8;" horiz-adv-x="983" d="M154 1188v246h163v-246h-163zM666 1188v246h163v-246h-163z" />
<glyph unicode="&#xa9;" horiz-adv-x="1566" d="M61 696q0 150 56.5 281t155 227t229.5 152.5t280 56.5q150 0 282 -56.5t230.5 -152.5t154.5 -227t56 -281t-56 -280.5t-154.5 -227t-230.5 -152.5t-282 -56t-280.5 56t-229 152.5t-155 227t-56.5 280.5zM147 696q0 -131 50.5 -246.5t136.5 -201.5t201.5 -136.5 t246.5 -50.5t247 50.5t202 136.5t136 201.5t50 246.5t-50 246t-136 200t-202 134t-247 49t-246.5 -49t-201.5 -134t-136.5 -200t-50.5 -246zM446 705q0 170 88.5 261t253.5 91q94 0 157 -25.5t102 -52.5l-41 -86q-55 35 -108.5 49t-100.5 14q-119 0 -174.5 -64.5 t-55.5 -186.5q0 -131 55.5 -202t174.5 -71q47 0 100 13.5t107 48.5l43 -86q-39 -27 -101.5 -51.5t-157.5 -24.5q-166 0 -254 96t-88 277z" />
<glyph unicode="&#xaa;" horiz-adv-x="571" d="M42 1018.5q-1 11.5 1 23.5q6 78 69.5 108t143.5 30h111v49q0 92 -115 92q-18 0 -41 -2t-55 -6v-62h-82v129q53 10 105 16.5t95 6.5q92 0 141.5 -35t49.5 -135v-270h65v-82h-163v51h-2q-35 -29 -66 -43.5t-72 -16.5q-25 -2 -51 0q-57 4 -91 37t-40 86q-2 12 -3 23.5z M139 1030q0 -39 28 -61.5t77 -22.5q41 0 73.5 13.5t49.5 29.5v129h-97q-70 0 -100.5 -20.5t-30.5 -67.5z" />
<glyph unicode="&#xab;" horiz-adv-x="1495" d="M113 455v112l553 355v-195l-359 -215l359 -215v-195zM829 455v112l553 355v-195l-358 -215l358 -215v-195z" />
<glyph unicode="&#xac;" horiz-adv-x="1208" d="M154 465v153h901v-372h-154v219h-747z" />
<glyph unicode="&#xad;" horiz-adv-x="1105" d="M154 465v153h798v-153h-798z" />
<glyph unicode="&#xae;" horiz-adv-x="1566" d="M61 696q0 150 56.5 281t155 227t229.5 152.5t280 56.5q150 0 282 -56.5t230.5 -152.5t154.5 -227t56 -281t-56 -280.5t-154.5 -227t-230.5 -152.5t-282 -56t-280.5 56t-229 152.5t-155 227t-56.5 280.5zM147 696q0 -131 50.5 -246.5t136.5 -201.5t201.5 -136.5 t246.5 -50.5t247 50.5t202 136.5t136 201.5t50 246.5t-50 246t-136 200t-202 134t-247 49t-246.5 -49t-201.5 -134t-136.5 -200t-50.5 -246zM524 344v705h283q127 0 195.5 -61.5t68.5 -172.5q0 -92 -46 -149.5t-126 -71.5l197 -250h-140l-180 231h-139v-231h-113zM637 678 h166q72 0 112.5 32.5t40.5 104.5q0 66 -39.5 98.5t-109.5 32.5h-170v-268z" />
<glyph unicode="&#xaf;" horiz-adv-x="778" d="M133 1198v133h512v-133h-512z" />
<glyph unicode="&#xb0;" horiz-adv-x="532" d="M80 1188q0 78 54 131t132 53t131.5 -53t53.5 -131t-53.5 -132.5t-131.5 -54.5t-132 54.5t-54 132.5zM152 1188q0 -49 32.5 -82t81.5 -33q47 0 80 33t33 82q0 47 -33 79.5t-80 32.5q-49 0 -81.5 -32.5t-32.5 -79.5z" />
<glyph unicode="&#xb1;" horiz-adv-x="1024" d="M113 82v154h321v245h-321v154h321v321h154v-321h323v-154h-323v-245h323v-154h-798z" />
<glyph unicode="&#xb2;" horiz-adv-x="550" d="M41 1106v94q109 72 175.5 130.5t103 104.5t49 82.5t12.5 65.5q0 47 -15.5 75t-38 42t-46 18t-41.5 4q-29 0 -55.5 -5t-61.5 -19v-62h-82v125q57 25 106.5 38t114.5 13q117 0 170 -61t53 -147q0 -109 -77.5 -206.5t-227.5 -203.5v-2h250v65h80v-151h-469z" />
<glyph unicode="&#xb3;" horiz-adv-x="550" d="M41 1145v127h82v-72q29 -12 63.5 -17t73.5 -5q49 0 78 12t45 30.5t21.5 39t5.5 36.5q0 53 -39 85t-123 32h-88v82h84q82 0 115.5 39t33.5 84q0 18 -6 37.5t-20.5 36t-41 28t-65.5 11.5q-35 0 -65.5 -7.5t-59.5 -17.5v-70h-82v127q53 27 110.5 38t112.5 11q96 0 154.5 -47 t58.5 -137q0 -61 -36.5 -102t-94.5 -62v-2q74 -14 113 -61t39 -111q0 -94 -62.5 -144t-181.5 -50q-63 0 -117.5 10t-107.5 39z" />
<glyph unicode="&#xb4;" horiz-adv-x="593" d="M139 1147l123 287h158l-178 -287h-103z" />
<glyph unicode="&#xb5;" horiz-adv-x="1208" d="M-102 -416l16 144q35 -4 59.5 -7.5t46.5 -3.5q92 0 123 51.5t31 149.5v952h-133v154h317v-666q0 -100 46.5 -162.5t158.5 -62.5q43 0 85 12.5t79 30t68.5 37.5t54.5 37v620h-164v154h348v-870h133v-154h-317v143h-4q-59 -53 -127 -92t-146 -49q-150 -18 -215 68v-109 q0 -90 -10 -159.5t-38.5 -119t-78 -76t-127.5 -32.5q-16 -4 -34.5 -4h-40.5q-29 2 -64 6t-67 8z" />
<glyph unicode="&#xb6;" horiz-adv-x="1157" d="M61 999q0 92 30 165t84 124t130 78t168 27h571v-72h-167v-1249h167v-72h-282v10h33v1311h-133v-717h-189q-92 0 -168 29t-130 81t-84 124.5t-30 160.5z" />
<glyph unicode="&#xb7;" horiz-adv-x="409" d="M113 379v266h184v-266h-184z" />
<glyph unicode="&#xb8;" horiz-adv-x="602" d="M123 -395l12 61q25 -6 49.5 -10t57.5 -4q68 0 92 32.5t24 63.5t-26.5 62.5t-100.5 35.5v154h72v-113q29 -2 59.5 -10t55 -25.5t41 -44t16.5 -67.5q0 -74 -53 -117t-148 -43q-72 0 -151 25z" />
<glyph unicode="&#xb9;" horiz-adv-x="421" d="M41 1106v82h121v524l-117 -10v70l170 36h45v-620h121v-82h-340z" />
<glyph unicode="&#xba;" horiz-adv-x="557" d="M41 1137q0 119 53 192.5t185 73.5q129 0 183 -74t54 -192q0 -121 -54 -194t-183 -73q-131 0 -184.5 73t-53.5 194zM143 1137q0 -80 29 -132.5t107 -52.5t105.5 52.5t27.5 132.5q0 78 -27.5 131t-105.5 53t-107 -53.5t-29 -130.5z" />
<glyph unicode="&#xbb;" horiz-adv-x="1495" d="M113 102v195l358 215l-358 215v195l553 -355v-112zM829 102v195l359 215l-359 215v195l553 -355v-112z" />
<glyph unicode="&#xbc;" horiz-adv-x="1638" d="M143 696v82h121v525l-117 -11v70l170 37h45v-621h121v-82h-340zM455 0l757 1393h62l-758 -1393h-61zM979 199v82q86 92 164 194.5t133 226.5h123v-421h96v-82h-96v-117h65v-82h-229v82h65v117h-321zM1079 281h221v313h-2q-47 -88 -101 -165t-118 -148z" />
<glyph unicode="&#xbd;" horiz-adv-x="1638" d="M143 696v82h121v525l-117 -11v70l170 37h45v-621h121v-82h-340zM373 0l757 1393h62l-758 -1393h-61zM1024 0v94q109 72 176.5 130.5t104 104.5t49 83t12.5 65q0 47 -15.5 75t-38 42t-47 18t-40.5 4q-29 0 -56.5 -5t-62.5 -19v-62h-82v125q59 25 108.5 38.5t114.5 13.5 q115 0 168 -61.5t53 -147.5q0 -109 -76.5 -206t-228.5 -204v-2h250v66h82v-152h-471z" />
<glyph unicode="&#xbe;" horiz-adv-x="1638" d="M143 735v127h82v-71q29 -12 64 -17.5t73 -5.5q49 0 78 12.5t45.5 30.5t21.5 38.5t5 37.5q0 53 -39 85t-123 32h-88v81h84q82 0 116 39t34 84q0 18 -6.5 38t-20.5 36t-41 27.5t-66 11.5q-35 0 -65.5 -7t-58.5 -18v-69h-82v127q53 27 110.5 38t112.5 11q96 0 154.5 -47 t58.5 -137q0 -61 -37 -102.5t-94 -61.5v-2q74 -14 112.5 -61.5t38.5 -110.5q0 -94 -62.5 -144.5t-180.5 -50.5q-63 0 -117.5 10.5t-108.5 38.5zM475 0l758 1393h61l-757 -1393h-62zM979 199v82q86 92 164 194.5t133 226.5h123v-421h96v-82h-96v-117h65v-82h-229v82h65v117 h-321zM1079 281h221v313h-2q-47 -88 -101 -165t-118 -148z" />
<glyph unicode="&#xbf;" horiz-adv-x="1024" d="M113 -31q0 90 27.5 152.5t70.5 107.5t91 79t91 66t71 68.5t28 89.5v62h163v-62q0 -76 -26.5 -127t-65.5 -91t-85 -71.5t-85 -66.5t-65.5 -80t-26.5 -108q0 -72 27.5 -112t66.5 -60.5t82 -25.5t76 -5q35 0 87 9t118 32v154h153v-291q-86 -35 -190.5 -56.5t-208.5 -21.5 q-121 0 -198.5 33.5t-123 86t-61.5 116t-16 122.5zM481 758v266h185v-266h-185z" />
<glyph unicode="&#xc0;" horiz-adv-x="1433" d="M41 0v154h129l383 1085h-150v154h459l418 -1239h113v-154h-482v154h158l-90 270h-522l-97 -270h152v-154h-471zM467 1782h160l123 -287h-103zM498 567h446l-217 652h-2z" />
<glyph unicode="&#xc1;" horiz-adv-x="1433" d="M41 0v154h129l383 1085h-150v154h459l418 -1239h113v-154h-482v154h158l-90 270h-522l-97 -270h152v-154h-471zM498 567h446l-217 652h-2zM686 1495l123 287h158l-179 -287h-102z" />
<glyph unicode="&#xc2;" horiz-adv-x="1433" d="M41 0v154h129l383 1085h-150v154h459l418 -1239h113v-154h-482v154h158l-90 270h-522l-97 -270h152v-154h-471zM436 1495l215 287h121l217 -287h-102l-176 182l-172 -182h-103zM498 567h446l-217 652h-2z" />
<glyph unicode="&#xc3;" horiz-adv-x="1433" d="M41 0v154h129l383 1085h-150v154h459l418 -1239h113v-154h-482v154h158l-90 270h-522l-97 -270h152v-154h-471zM381 1567q59 98 112.5 138t106.5 40q37 0 74 -16.5t71.5 -37t65.5 -37t57 -16.5q29 0 61 11.5t72 72.5l52 -57q-70 -137 -162 -149q-18 -2 -43 4 q-29 6 -59.5 22.5t-63.5 32.5t-63.5 29.5t-57.5 13.5q-18 0 -33.5 -3t-33 -12.5t-41 -30t-56.5 -52.5zM498 567h446l-217 652h-2z" />
<glyph unicode="&#xc4;" horiz-adv-x="1433" d="M41 0v154h129l383 1085h-150v154h459l418 -1239h113v-154h-482v154h158l-90 270h-522l-97 -270h152v-154h-471zM385 1536v246h164v-246h-164zM498 567h446l-217 652h-2zM897 1536v246h164v-246h-164z" />
<glyph unicode="&#xc5;" horiz-adv-x="1433" d="M41 0v154h129l383 1085h-150v154h459l418 -1239h113v-154h-482v154h158l-90 270h-522l-97 -270h152v-154h-471zM498 567h446l-217 652h-2zM530 1679q0 78 54.5 131.5t132.5 53.5t131 -53.5t53 -131.5t-53 -132t-131 -54t-132.5 54t-54.5 132zM602 1679q0 -49 33 -81.5 t82 -32.5q47 0 79.5 32.5t32.5 81.5q0 47 -32.5 80t-79.5 33q-49 0 -82 -33t-33 -80z" />
<glyph unicode="&#xc6;" horiz-adv-x="1875" d="M20 0v154h121l572 1085h-150v154h1221v-297h-154v143h-553v-440h604v-154h-604v-491h553v143h154v-297h-901v496h-359q-59 -111 -116.5 -220.5t-116.5 -220.5h86l-17 -55h-340zM592 649h291v568h-4z" />
<glyph unicode="&#xc7;" horiz-adv-x="1249" d="M92 707q0 145 25.5 274t92 225.5t182.5 151.5t294 55q119 0 234.5 -16.5t246.5 -55.5v-286h-153v166q-104 23 -174 31t-140 8q-121 0 -198.5 -45.5t-123.5 -121t-63.5 -176t-17.5 -210.5q0 -119 17.5 -223.5t63.5 -182.5t124 -123t198 -45q70 0 139.5 6t174.5 31v168h153 v-287q-123 -37 -229.5 -52t-216.5 -19v-93q29 -2 59.5 -10t55 -25.5t41 -44t16.5 -67.5q0 -74 -53.5 -117t-147.5 -43q-72 0 -151 25l12 61q25 -6 49.5 -10t56.5 -4q68 0 92.5 32.5t24.5 63.5t-26.5 62.5t-100.5 35.5v134q-168 6 -275.5 65t-170 157.5t-87 228.5t-24.5 276z " />
<glyph unicode="&#xc8;" horiz-adv-x="1167" d="M41 0v154h133v1085h-133v154h1034v-297h-153v143h-553v-440h604v-154h-604v-491h553v143h153v-297h-1034zM408 1782h159l123 -287h-102z" />
<glyph unicode="&#xc9;" horiz-adv-x="1167" d="M41 0v154h133v1085h-133v154h1034v-297h-153v143h-553v-440h604v-154h-604v-491h553v143h153v-297h-1034zM549 1495l123 287h157l-178 -287h-102z" />
<glyph unicode="&#xca;" horiz-adv-x="1167" d="M41 0v154h133v1085h-133v154h1034v-297h-153v143h-553v-440h604v-154h-604v-491h553v143h153v-297h-1034zM356 1495l215 287h121l217 -287h-102l-176 182l-172 -182h-103z" />
<glyph unicode="&#xcb;" horiz-adv-x="1167" d="M41 0v154h133v1085h-133v154h1034v-297h-153v143h-553v-440h604v-154h-604v-491h553v143h153v-297h-1034zM266 1536v246h164v-246h-164zM778 1536v246h164v-246h-164z" />
<glyph unicode="&#xcc;" horiz-adv-x="542" d="M41 0v154h133v1085h-133v154h461v-154h-133v-1085h133v-154h-461zM51 1782h160l123 -287h-103z" />
<glyph unicode="&#xcd;" horiz-adv-x="542" d="M41 0v154h133v1085h-133v154h461v-154h-133v-1085h133v-154h-461zM211 1495l123 287h158l-179 -287h-102z" />
<glyph unicode="&#xce;" horiz-adv-x="542" d="M-6 1495l215 287h121l217 -287h-103l-176 182l-172 -182h-102zM41 0v154h133v1085h-133v154h461v-154h-133v-1085h133v-154h-461z" />
<glyph unicode="&#xcf;" horiz-adv-x="542" d="M-68 1536v246h164v-246h-164zM41 0v154h133v1085h-133v154h461v-154h-133v-1085h133v-154h-461zM444 1536v246h164v-246h-164z" />
<glyph unicode="&#xd0;" horiz-adv-x="1351" d="M41 0v154h133v495h-133v113h133v477h-133v154h629q172 0 285.5 -52.5t181 -144.5t95.5 -218t28 -271q0 -147 -28 -276.5t-95.5 -224.5t-181 -150.5t-285.5 -55.5h-629zM369 154h301q117 0 191.5 45t117.5 120.5t59.5 176t16.5 211.5t-16.5 208t-59.5 169.5t-118 113.5 t-191 41h-301v-477h215v-113h-215v-495z" />
<glyph unicode="&#xd1;" horiz-adv-x="1413" d="M41 0v154h133v1085h-133v154h321l693 -1065h4v911h-137v154h450v-154h-133v-1239h-201l-682 1038h-4v-884h140v-154h-451zM389 1567q59 98 112.5 138t106.5 40q37 0 74 -16.5t71.5 -37t65.5 -37t58 -16.5q29 0 60.5 11.5t72.5 72.5l51 -57q-70 -137 -162 -149 q-18 -2 -43 4q-29 6 -59.5 22.5t-63.5 32.5t-63.5 29.5t-57.5 13.5q-18 0 -33.5 -3t-33 -12.5t-41 -30t-55.5 -52.5z" />
<glyph unicode="&#xd2;" horiz-adv-x="1372" d="M92 707q0 145 25.5 274t92 225.5t182.5 151.5t294 55t293 -55t182.5 -151.5t93 -225.5t25.5 -274q0 -147 -25.5 -279.5t-93 -232t-182.5 -157.5t-293 -58t-294 58t-182.5 157.5t-92 231.5t-25.5 280zM297 707q0 -111 14.5 -214.5t55.5 -183.5t117.5 -128t201.5 -48 t201 48t118 128t56 183.5t14 214.5t-14 211t-56 175.5t-118 121t-201 45.5t-201.5 -45.5t-117.5 -121t-55.5 -176t-14.5 -210.5zM489 1782h160l123 -287h-102z" />
<glyph unicode="&#xd3;" horiz-adv-x="1372" d="M92 707q0 145 25.5 274t92 225.5t182.5 151.5t294 55t293 -55t182.5 -151.5t93 -225.5t25.5 -274q0 -147 -25.5 -279.5t-93 -232t-182.5 -157.5t-293 -58t-294 58t-182.5 157.5t-92 231.5t-25.5 280zM297 707q0 -111 14.5 -214.5t55.5 -183.5t117.5 -128t201.5 -48 t201 48t118 128t56 183.5t14 214.5t-14 211t-56 175.5t-118 121t-201 45.5t-201.5 -45.5t-117.5 -121t-55.5 -176t-14.5 -210.5zM633 1495l123 287h157l-178 -287h-102z" />
<glyph unicode="&#xd4;" horiz-adv-x="1372" d="M92 707q0 145 25.5 274t92 225.5t182.5 151.5t294 55t293 -55t182.5 -151.5t93 -225.5t25.5 -274q0 -147 -25.5 -279.5t-93 -232t-182.5 -157.5t-293 -58t-294 58t-182.5 157.5t-92 231.5t-25.5 280zM297 707q0 -111 14.5 -214.5t55.5 -183.5t117.5 -128t201.5 -48 t201 48t118 128t56 183.5t14 214.5t-14 211t-56 175.5t-118 121t-201 45.5t-201.5 -45.5t-117.5 -121t-55.5 -176t-14.5 -210.5zM412 1495l215 287h121l217 -287h-103l-176 182l-172 -182h-102z" />
<glyph unicode="&#xd5;" horiz-adv-x="1372" d="M92 707q0 145 25.5 274t92 225.5t182.5 151.5t294 55t293 -55t182.5 -151.5t93 -225.5t25.5 -274q0 -147 -25.5 -279.5t-93 -232t-182.5 -157.5t-293 -58t-294 58t-182.5 157.5t-92 231.5t-25.5 280zM297 707q0 -111 14.5 -214.5t55.5 -183.5t117.5 -128t201.5 -48 t201 48t118 128t56 183.5t14 214.5t-14 211t-56 175.5t-118 121t-201 45.5t-201.5 -45.5t-117.5 -121t-55.5 -176t-14.5 -210.5zM348 1567q59 98 112.5 138t106.5 40q37 0 74 -16.5t72 -37t65.5 -37t57.5 -16.5q29 0 60.5 11.5t72.5 72.5l51 -57q-70 -137 -162 -149 q-18 -2 -43 4q-29 6 -59.5 22.5t-63.5 32.5t-63.5 29.5t-57.5 13.5q-18 0 -33.5 -3t-33 -12.5t-41 -30t-55.5 -52.5z" />
<glyph unicode="&#xd6;" horiz-adv-x="1372" d="M92 707q0 145 25.5 274t92 225.5t182.5 151.5t294 55t293 -55t182.5 -151.5t93 -225.5t25.5 -274q0 -147 -25.5 -279.5t-93 -232t-182.5 -157.5t-293 -58t-294 58t-182.5 157.5t-92 231.5t-25.5 280zM297 707q0 -111 14.5 -214.5t55.5 -183.5t117.5 -128t201.5 -48 t201 48t118 128t56 183.5t14 214.5t-14 211t-56 175.5t-118 121t-201 45.5t-201.5 -45.5t-117.5 -121t-55.5 -176t-14.5 -210.5zM354 1536v246h164v-246h-164zM866 1536v246h164v-246h-164z" />
<glyph unicode="&#xd7;" horiz-adv-x="1077" d="M143 256l287 287l-287 284l109 109l287 -285l284 285l109 -109l-285 -284l285 -287l-109 -109l-284 287l-287 -287z" />
<glyph unicode="&#xd8;" horiz-adv-x="1372" d="M61 -16l158 198q-72 100 -99.5 235.5t-27.5 289.5q0 145 25.5 274t92 225.5t182.5 151.5t294 55q139 0 237.5 -36t163.5 -99l162 203l60 -47l-164 -207q78 -98 106.5 -232.5t28.5 -287.5q0 -147 -25.5 -279.5t-93 -232t-182.5 -157.5t-293 -58q-145 0 -245.5 38.5 t-168.5 108.5l-151 -190zM297 707q0 -96 11 -187.5t46 -165.5l621 781q-45 53 -115 83.5t-174 30.5q-125 0 -201.5 -43t-117.5 -116.5t-55.5 -173t-14.5 -209.5zM389 274q45 -61 115.5 -96t181.5 -35q125 0 201 46.5t118 124t56 180t14 213.5q0 98 -12 188t-53 162z" />
<glyph unicode="&#xd9;" horiz-adv-x="1392" d="M41 1239v154h461v-154h-133v-747q0 -57 9 -121t43 -116t100.5 -87t178.5 -35q106 0 171 35t99 87t44 115.5t10 121.5v747h-133v154h461v-154h-133v-747q0 -268 -137.5 -390t-385.5 -122q-250 0 -386 121.5t-136 390.5v747h-133zM457 1782h159l123 -287h-102z" />
<glyph unicode="&#xda;" horiz-adv-x="1392" d="M41 1239v154h461v-154h-133v-747q0 -57 9 -121t43 -116t100.5 -87t178.5 -35q106 0 171 35t99 87t44 115.5t10 121.5v747h-133v154h461v-154h-133v-747q0 -268 -137.5 -390t-385.5 -122q-250 0 -386 121.5t-136 390.5v747h-133zM645 1495l123 287h158l-178 -287h-103z " />
<glyph unicode="&#xdb;" horiz-adv-x="1392" d="M41 1239v154h461v-154h-133v-747q0 -57 9 -121t43 -116t100.5 -87t178.5 -35q106 0 171 35t99 87t44 115.5t10 121.5v747h-133v154h461v-154h-133v-747q0 -268 -137.5 -390t-385.5 -122q-250 0 -386 121.5t-136 390.5v747h-133zM428 1495l215 287h121l217 -287h-102 l-177 182l-172 -182h-102z" />
<glyph unicode="&#xdc;" horiz-adv-x="1392" d="M41 1239v154h461v-154h-133v-747q0 -57 9 -121t43 -116t100.5 -87t178.5 -35q106 0 171 35t99 87t44 115.5t10 121.5v747h-133v154h461v-154h-133v-747q0 -268 -137.5 -390t-385.5 -122q-250 0 -386 121.5t-136 390.5v747h-133zM356 1536v246h164v-246h-164zM868 1536 v246h164v-246h-164z" />
<glyph unicode="&#xdd;" horiz-adv-x="1351" d="M41 1239v154h512v-154h-186l321 -604h4l320 604h-185v154h484v-154h-111l-428 -788v-297h133v-154h-461v154h134v297l-418 788h-119zM655 1495l123 287h158l-178 -287h-103z" />
<glyph unicode="&#xde;" horiz-adv-x="1269" d="M41 0v154h133v1085h-133v154h328v-287h379q207 0 318.5 -112.5t111.5 -297.5q0 -193 -111 -301t-319 -108h-379v-287h-328zM369 440h358q117 0 183.5 63.5t66.5 192.5q0 119 -66.5 187.5t-183.5 68.5h-358v-512z" />
<glyph unicode="&#xdf;" horiz-adv-x="1320" d="M41 891v121l154 12q0 121 38.5 201t103 126t147.5 64.5t171 18.5q190 0 305 -76t115 -232q0 -90 -40 -148t-88 -98t-88 -72t-40 -71t31 -58.5t65 -31.5q182 -66 253 -147.5t71 -190.5q0 -92 -36 -155.5t-93 -101.5t-132 -55t-151 -17q-78 0 -141 11t-123 29l23 144 q66 -23 124 -32t109 -9q76 0 120 21.5t67.5 51t30.5 61.5t7 50q0 57 -30.5 97t-71.5 67t-83 42t-66 28q-82 39 -115 75.5t-33 102.5q0 53 34 92t75 77t74.5 86t33.5 120q0 57 -21.5 95t-55 59.5t-72.5 29.5t-74 8q-80 0 -131 -25.5t-80 -69.5t-39 -100.5t-10 -117.5v-973 h-318v154h134v737h-154z" />
<glyph unicode="&#xe0;" horiz-adv-x="1095" d="M84 287q0 92 37 151.5t96 94t137 48t158 13.5h225v102q0 100 -54 147.5t-181 47.5q-37 0 -85 -4t-116 -15v-124h-154v253q104 20 207 31.5t189 11.5q92 0 162.5 -15t118.5 -54t73 -103.5t25 -164.5v-553h133v-154h-318v102h-4q-68 -57 -141.5 -89.5t-175.5 -32.5 q-160 0 -246 79.5t-86 227.5zM266 297q0 -82 57.5 -128t157.5 -46q88 0 154.5 28.5t101.5 57.5v272h-198q-147 0 -210 -44t-63 -140zM342 1434h160l123 -287h-103z" />
<glyph unicode="&#xe1;" horiz-adv-x="1095" d="M84 287q0 92 37 151.5t96 94t137 48t158 13.5h225v102q0 100 -54 147.5t-181 47.5q-37 0 -85 -4t-116 -15v-124h-154v253q104 20 207 31.5t189 11.5q92 0 162.5 -15t118.5 -54t73 -103.5t25 -164.5v-553h133v-154h-318v102h-4q-68 -57 -141.5 -89.5t-175.5 -32.5 q-160 0 -246 79.5t-86 227.5zM266 297q0 -82 57.5 -128t157.5 -46q88 0 154.5 28.5t101.5 57.5v272h-198q-147 0 -210 -44t-63 -140zM479 1147l123 287h158l-178 -287h-103z" />
<glyph unicode="&#xe2;" horiz-adv-x="1095" d="M84 287q0 92 37 151.5t96 94t137 48t158 13.5h225v102q0 100 -54 147.5t-181 47.5q-37 0 -85 -4t-116 -15v-124h-154v253q104 20 207 31.5t189 11.5q92 0 162.5 -15t118.5 -54t73 -103.5t25 -164.5v-553h133v-154h-318v102h-4q-68 -57 -141.5 -89.5t-175.5 -32.5 q-160 0 -246 79.5t-86 227.5zM266 297q0 -82 57.5 -128t157.5 -46q88 0 154.5 28.5t101.5 57.5v272h-198q-147 0 -210 -44t-63 -140zM276 1147l216 287h120l217 -287h-102l-176 182l-172 -182h-103z" />
<glyph unicode="&#xe3;" horiz-adv-x="1095" d="M84 287q0 92 37 151.5t96 94t137 48t158 13.5h225v102q0 100 -54 147.5t-181 47.5q-37 0 -85 -4t-116 -15v-124h-154v253q104 20 207 31.5t189 11.5q92 0 162.5 -15t118.5 -54t73 -103.5t25 -164.5v-553h133v-154h-318v102h-4q-68 -57 -141.5 -89.5t-175.5 -32.5 q-160 0 -246 79.5t-86 227.5zM213 1219q59 98 112.5 138t106.5 40q37 0 74 -16.5t71.5 -37t65.5 -37t57 -16.5q29 0 61 11.5t73 72.5l51 -57q-70 -137 -162 -150q-18 -2 -43 4q-29 6 -59.5 22.5t-63.5 33t-63.5 30t-57.5 13.5q-18 0 -33.5 -3t-33 -12.5t-41 -30t-56.5 -53.5 zM266 297q0 -82 57.5 -128t157.5 -46q88 0 154.5 28.5t101.5 57.5v272h-198q-147 0 -210 -44t-63 -140z" />
<glyph unicode="&#xe4;" horiz-adv-x="1095" d="M84 287q0 92 37 151.5t96 94t137 48t158 13.5h225v102q0 100 -54 147.5t-181 47.5q-37 0 -85 -4t-116 -15v-124h-154v253q104 20 207 31.5t189 11.5q92 0 162.5 -15t118.5 -54t73 -103.5t25 -164.5v-553h133v-154h-318v102h-4q-68 -57 -141.5 -89.5t-175.5 -32.5 q-160 0 -246 79.5t-86 227.5zM213 1188v246h164v-246h-164zM266 297q0 -82 57.5 -128t157.5 -46q88 0 154.5 28.5t101.5 57.5v272h-198q-147 0 -210 -44t-63 -140zM725 1188v246h164v-246h-164z" />
<glyph unicode="&#xe5;" horiz-adv-x="1095" d="M84 287q0 92 37 151.5t96 94t137 48t158 13.5h225v102q0 100 -54 147.5t-181 47.5q-37 0 -85 -4t-116 -15v-124h-154v253q104 20 207 31.5t189 11.5q92 0 162.5 -15t118.5 -54t73 -103.5t25 -164.5v-553h133v-154h-318v102h-4q-68 -57 -141.5 -89.5t-175.5 -32.5 q-160 0 -246 79.5t-86 227.5zM266 297q0 -82 57.5 -128t157.5 -46q88 0 154.5 28.5t101.5 57.5v272h-198q-147 0 -210 -44t-63 -140zM367 1331q0 78 54 131.5t132 53.5t131 -53.5t53 -131.5t-53 -132t-131 -54t-132 54t-54 132zM438 1331q0 -49 33 -81.5t82 -32.5 q47 0 80 32.5t33 81.5q0 47 -33 80t-80 33q-49 0 -82 -33t-33 -80z" />
<glyph unicode="&#xe6;" horiz-adv-x="1730" d="M82 281q0 92 36 152.5t96 96t139 50t165 14.5h219v92q0 109 -51 157t-184 48q-37 0 -85 -4t-116 -15v-124h-154v253q78 16 182.5 29.5t200.5 13.5q141 0 218 -45t114 -155q47 92 138.5 146t238.5 54q162 0 250 -55t126 -138t38 -182.5t-17 -187.5h-700q4 -158 82 -253 t256 -95q76 0 152.5 6t166.5 35l25 -149q-98 -27 -183 -36t-186 -9q-166 0 -270.5 49t-161.5 141q-51 -57 -103 -94t-103.5 -58.5t-101.5 -29.5t-99 -8q-154 0 -241 82.5t-87 218.5zM266 297q0 -82 57.5 -128t157.5 -46q88 0 163 32.5t126 82.5q-18 51 -25.5 111.5 t-7.5 131.5h-215q-143 0 -199.5 -48t-56.5 -136zM936 598h520q10 53 7 107.5t-27.5 97.5t-74.5 70.5t-132 27.5q-78 0 -131.5 -23.5t-87 -63.5t-51 -96t-23.5 -120z" />
<glyph unicode="&#xe7;" horiz-adv-x="1003" d="M92 512q0 119 25.5 217t85 168t155 108.5t236.5 38.5q96 0 176 -12t172 -35v-249h-154v122q-66 16 -113.5 18.5t-80.5 2.5q-80 0 -138.5 -27.5t-96 -78t-55 -120t-17.5 -153.5t17.5 -153.5t55 -120t96 -78t138.5 -27.5q27 0 56.5 1t66.5 4t83 11.5t107 24.5l35 -149 q-92 -23 -170 -34t-170 -11v-93q29 -2 58.5 -10t54 -25.5t41 -44t16.5 -67.5q0 -74 -52 -117t-147 -43q-74 0 -153 25l12 61q25 -6 49.5 -10t59.5 -4q68 0 92 32.5t24 63.5q0 14 -5 31.5t-19.5 32t-39 23.5t-63.5 11v136q-123 8 -205.5 49t-135 110.5t-75 163.5t-22.5 207z " />
<glyph unicode="&#xe8;" horiz-adv-x="1085" d="M92 512q0 119 26.5 217t86 168t155 108.5t234.5 38.5q162 0 250 -55t126 -138t38 -182.5t-17 -187.5h-704q2 -78 21.5 -141.5t60.5 -109.5t105.5 -71.5t154.5 -25.5q76 0 152.5 6t166.5 35l25 -149q-98 -27 -183 -36t-186 -9q-141 0 -239.5 38.5t-159 108.5t-87 168 t-26.5 217zM287 598h524q10 53 7 107.5t-27.5 97.5t-74.5 70.5t-132 27.5q-78 0 -132.5 -23.5t-89 -63.5t-53 -96t-22.5 -120zM362 1434h160l123 -287h-102z" />
<glyph unicode="&#xe9;" horiz-adv-x="1085" d="M92 512q0 119 26.5 217t86 168t155 108.5t234.5 38.5q162 0 250 -55t126 -138t38 -182.5t-17 -187.5h-704q2 -78 21.5 -141.5t60.5 -109.5t105.5 -71.5t154.5 -25.5q76 0 152.5 6t166.5 35l25 -149q-98 -27 -183 -36t-186 -9q-141 0 -239.5 38.5t-159 108.5t-87 168 t-26.5 217zM287 598h524q10 53 7 107.5t-27.5 97.5t-74.5 70.5t-132 27.5q-78 0 -132.5 -23.5t-89 -63.5t-53 -96t-22.5 -120zM561 1147l123 287h158l-178 -287h-103z" />
<glyph unicode="&#xea;" horiz-adv-x="1085" d="M92 512q0 119 26.5 217t86 168t155 108.5t234.5 38.5q162 0 250 -55t126 -138t38 -182.5t-17 -187.5h-704q2 -78 21.5 -141.5t60.5 -109.5t105.5 -71.5t154.5 -25.5q76 0 152.5 6t166.5 35l25 -149q-98 -27 -183 -36t-186 -9q-141 0 -239.5 38.5t-159 108.5t-87 168 t-26.5 217zM287 598h524q10 53 7 107.5t-27.5 97.5t-74.5 70.5t-132 27.5q-78 0 -132.5 -23.5t-89 -63.5t-53 -96t-22.5 -120zM315 1147l215 287h121l217 -287h-102l-176 182l-172 -182h-103z" />
<glyph unicode="&#xeb;" horiz-adv-x="1085" d="M92 512q0 119 26.5 217t86 168t155 108.5t234.5 38.5q162 0 250 -55t126 -138t38 -182.5t-17 -187.5h-704q2 -78 21.5 -141.5t60.5 -109.5t105.5 -71.5t154.5 -25.5q76 0 152.5 6t166.5 35l25 -149q-98 -27 -183 -36t-186 -9q-141 0 -239.5 38.5t-159 108.5t-87 168 t-26.5 217zM244 1188v246h164v-246h-164zM287 598h524q10 53 7 107.5t-27.5 97.5t-74.5 70.5t-132 27.5q-78 0 -132.5 -23.5t-89 -63.5t-53 -96t-22.5 -120zM756 1188v246h164v-246h-164z" />
<glyph unicode="&#xec;" horiz-adv-x="532" d="M0 1434h160l123 -287h-103zM41 0v154h133v716h-133v154h317v-870h134v-154h-451z" />
<glyph unicode="&#xed;" horiz-adv-x="532" d="M41 0v154h133v716h-133v154h317v-870h134v-154h-451zM217 1147l123 287h158l-179 -287h-102z" />
<glyph unicode="&#xee;" horiz-adv-x="532" d="M-31 1147l215 287h121l217 -287h-102l-176 182l-172 -182h-103zM41 0v154h133v716h-133v154h317v-870h134v-154h-451z" />
<glyph unicode="&#xef;" horiz-adv-x="532" d="M-82 1188v246h164v-246h-164zM41 0v154h133v716h-133v154h317v-870h134v-154h-451zM430 1188v246h164v-246h-164z" />
<glyph unicode="&#xf0;" d="M92 451q0 231 112.5 356t311.5 125q100 0 185 -50.5t145 -129.5l4 2q-2 39 -8 90t-19.5 104t-37 104.5t-60.5 92.5l-139 -141l-66 67l123 123q-41 29 -92 47.5t-115 18.5q-66 0 -130 -11.5t-148 -40.5l-23 142q39 14 76 26.5t74 20.5t77.5 12t90.5 4q86 0 166.5 -22.5 t148.5 -71.5l154 154l65 -66l-143 -143q88 -92 139 -250t51 -400q0 -123 -23.5 -236.5t-80 -202.5t-150.5 -142t-233 -53q-98 0 -181 31.5t-144.5 93t-95.5 148.5t-34 198zM287 451q0 -78 21.5 -137.5t58 -99.5t86 -60.5t104.5 -20.5q92 0 148.5 41t86 106.5t38 150.5 t4.5 175q-49 70 -117 117t-152 47q-86 0 -140 -30.5t-85 -77t-42 -103.5t-11 -108z" />
<glyph unicode="&#xf1;" horiz-adv-x="1208" d="M41 0v154h133v716h-133v154h317v-143h4q74 72 165 117.5t200 45.5q154 0 230.5 -88t76.5 -249v-553h133v-154h-440v154h123v512q0 100 -45 162.5t-160 62.5q-45 0 -87 -12.5t-79 -30t-67.5 -37.5t-53.5 -39v-618h123v-154h-440zM274 1219q59 98 112.5 138t107.5 40 q37 0 73.5 -16.5t71.5 -37t65.5 -37t57.5 -16.5q29 0 60.5 11.5t72.5 72.5l51 -57q-70 -137 -162 -150q-18 -2 -43 4q-29 6 -59.5 22.5t-63 33t-63 30t-57.5 13.5q-18 0 -33.5 -3t-33 -12.5t-41 -30t-56.5 -53.5z" />
<glyph unicode="&#xf2;" d="M92 512q0 119 25.5 217t81 168t145.5 108.5t219 38.5t218 -38.5t145.5 -108.5t82 -168t25.5 -217t-25.5 -217t-82 -168t-145.5 -108.5t-218 -38.5t-219 38.5t-145.5 108.5t-81 168t-25.5 217zM287 512q0 -80 13 -149.5t45 -121t85 -80t133 -28.5t133.5 28.5t85 80t45 121 t13.5 149.5t-13.5 149.5t-45 121t-85 80t-133.5 28.5t-133 -28.5t-85 -80t-45 -121t-13 -149.5zM350 1434h160l123 -287h-103z" />
<glyph unicode="&#xf3;" d="M92 512q0 119 25.5 217t81 168t145.5 108.5t219 38.5t218 -38.5t145.5 -108.5t82 -168t25.5 -217t-25.5 -217t-82 -168t-145.5 -108.5t-218 -38.5t-219 38.5t-145.5 108.5t-81 168t-25.5 217zM287 512q0 -80 13 -149.5t45 -121t85 -80t133 -28.5t133.5 28.5t85 80t45 121 t13.5 149.5t-13.5 149.5t-45 121t-85 80t-133.5 28.5t-133 -28.5t-85 -80t-45 -121t-13 -149.5zM514 1147l123 287h158l-179 -287h-102z" />
<glyph unicode="&#xf4;" d="M92 512q0 119 25.5 217t81 168t145.5 108.5t219 38.5t218 -38.5t145.5 -108.5t82 -168t25.5 -217t-25.5 -217t-82 -168t-145.5 -108.5t-218 -38.5t-219 38.5t-145.5 108.5t-81 168t-25.5 217zM287 512q0 -80 13 -149.5t45 -121t85 -80t133 -28.5t133.5 28.5t85 80t45 121 t13.5 149.5t-13.5 149.5t-45 121t-85 80t-133.5 28.5t-133 -28.5t-85 -80t-45 -121t-13 -149.5zM287 1147l215 287h121l217 -287h-103l-176 182l-172 -182h-102z" />
<glyph unicode="&#xf5;" d="M92 512q0 119 25.5 217t81 168t145.5 108.5t219 38.5t218 -38.5t145.5 -108.5t82 -168t25.5 -217t-25.5 -217t-82 -168t-145.5 -108.5t-218 -38.5t-219 38.5t-145.5 108.5t-81 168t-25.5 217zM227 1219q59 98 112.5 138t106.5 40q37 0 74 -16.5t72 -37t65.5 -37 t57.5 -16.5q29 0 60.5 11.5t72.5 72.5l51 -57q-70 -137 -162 -150q-18 -2 -43 4q-29 6 -59.5 22.5t-63 33t-63 30t-57.5 13.5q-18 0 -34 -3t-33 -12.5t-41 -30t-56 -53.5zM287 512q0 -80 13 -149.5t45 -121t85 -80t133 -28.5t133.5 28.5t85 80t45 121t13.5 149.5 t-13.5 149.5t-45 121t-85 80t-133.5 28.5t-133 -28.5t-85 -80t-45 -121t-13 -149.5z" />
<glyph unicode="&#xf6;" d="M92 512q0 119 25.5 217t81 168t145.5 108.5t219 38.5t218 -38.5t145.5 -108.5t82 -168t25.5 -217t-25.5 -217t-82 -168t-145.5 -108.5t-218 -38.5t-219 38.5t-145.5 108.5t-81 168t-25.5 217zM225 1188v246h164v-246h-164zM287 512q0 -80 13 -149.5t45 -121t85 -80 t133 -28.5t133.5 28.5t85 80t45 121t13.5 149.5t-13.5 149.5t-45 121t-85 80t-133.5 28.5t-133 -28.5t-85 -80t-45 -121t-13 -149.5zM737 1188v246h164v-246h-164z" />
<glyph unicode="&#xf7;" horiz-adv-x="1024" d="M113 485v113h798v-113h-798zM430 92v246h164v-246h-164zM430 748v245h164v-245h-164z" />
<glyph unicode="&#xf8;" d="M61 -16l129 151q-53 72 -75.5 166t-22.5 211q0 119 25.5 217t81 168t145.5 108.5t219 38.5q104 0 182 -27.5t132 -78.5l127 149l61 -47l-131 -153q53 -70 76.5 -165t23.5 -210q0 -119 -25.5 -217t-82 -168t-145.5 -108.5t-218 -38.5q-104 0 -182 27.5t-133 76.5 l-127 -147zM287 512q0 -59 9 -114.5t32 -100.5l434 508q-33 41 -81 63.5t-118 22.5q-80 0 -133 -28.5t-85 -80t-45 -121t-13 -149.5zM362 217q33 -41 81 -62.5t120 -21.5q80 0 133.5 28.5t85 80t45 121t13.5 149.5q0 59 -10.5 114.5t-32.5 98.5z" />
<glyph unicode="&#xf9;" horiz-adv-x="1208" d="M41 870v154h317v-666q0 -100 46.5 -162.5t158.5 -62.5q43 0 85 12.5t79 30t68.5 37.5t54.5 37v620h-164v154h348v-870h133v-154h-317v143h-4q-74 -74 -165 -118.5t-200 -44.5q-154 0 -230.5 88t-76.5 249v553h-133zM360 1434h160l123 -287h-102z" />
<glyph unicode="&#xfa;" horiz-adv-x="1208" d="M41 870v154h317v-666q0 -100 46.5 -162.5t158.5 -62.5q43 0 85 12.5t79 30t68.5 37.5t54.5 37v620h-164v154h348v-870h133v-154h-317v143h-4q-74 -74 -165 -118.5t-200 -44.5q-154 0 -230.5 88t-76.5 249v553h-133zM535 1147l122 287h158l-178 -287h-102z" />
<glyph unicode="&#xfb;" horiz-adv-x="1208" d="M41 870v154h317v-666q0 -100 46.5 -162.5t158.5 -62.5q43 0 85 12.5t79 30t68.5 37.5t54.5 37v620h-164v154h348v-870h133v-154h-317v143h-4q-74 -74 -165 -118.5t-200 -44.5q-154 0 -230.5 88t-76.5 249v553h-133zM309 1147l215 287h121l217 -287h-102l-176 182 l-172 -182h-103z" />
<glyph unicode="&#xfc;" horiz-adv-x="1208" d="M41 870v154h317v-666q0 -100 46.5 -162.5t158.5 -62.5q43 0 85 12.5t79 30t68.5 37.5t54.5 37v620h-164v154h348v-870h133v-154h-317v143h-4q-74 -74 -165 -118.5t-200 -44.5q-154 0 -230.5 88t-76.5 249v553h-133zM246 1188v246h164v-246h-164zM758 1188v246h164v-246 h-164z" />
<glyph unicode="&#xfd;" horiz-adv-x="1187" d="M41 870v154h446v-154h-149l280 -712h5l249 712h-145v154h418v-154h-88l-369 -927q-33 -82 -73 -150.5t-90 -118t-111.5 -77t-134.5 -27.5q-35 0 -76 4t-74 10l16 150q25 -6 50.5 -8t44.5 -2q51 0 93 22.5t73.5 58t55 80.5t40.5 90l-369 895h-92zM563 1147l123 287h158 l-178 -287h-103z" />
<glyph unicode="&#xfe;" horiz-adv-x="1146" d="M41 -256h133v1536h-133v154h317v-512h4q53 53 137.5 87.5t176.5 34.5q106 0 179 -40.5t118 -113.5t63.5 -170t18.5 -208t-20.5 -208t-66.5 -170t-121 -113.5t-181 -40.5q-88 0 -169 31.5t-135 84.5h-4v-352h134v-154h-451v154zM358 219q31 -25 95.5 -55.5t150.5 -30.5 q74 0 124 31t79 82t41 119.5t12 146.5q0 76 -12 145.5t-41 120.5t-79 82t-124 31q-86 0 -150.5 -31t-95.5 -57v-584z" />
<glyph unicode="&#xff;" horiz-adv-x="1187" d="M41 870v154h446v-154h-149l280 -712h5l249 712h-145v154h418v-154h-88l-369 -927q-33 -82 -73 -150.5t-90 -118t-111.5 -77t-134.5 -27.5q-35 0 -76 4t-74 10l16 150q25 -6 50.5 -8t44.5 -2q51 0 93 22.5t73.5 58t55 80.5t40.5 90l-369 895h-92zM274 1188v246h164v-246 h-164zM786 1188v246h164v-246h-164z" />
<glyph unicode="&#x152;" horiz-adv-x="2078" d="M92 707q0 145 25.5 274t92 225.5t182.5 151.5t294 55q156 0 239 -65.5t124 -165.5v211h938v-297h-154v143h-553v-440h604v-154h-604v-491h553v143h154v-297h-943v217q-20 -53 -49.5 -96t-72.5 -75t-101.5 -49t-134.5 -17q-178 0 -294 58t-182.5 157.5t-92 231.5 t-25.5 280zM297 707q0 -111 14.5 -214.5t55.5 -183.5t117.5 -128t201.5 -48t201 48t118 129t56 186.5t14 222.5q0 111 -15.5 209t-57 172t-117.5 117t-199 43q-125 0 -201.5 -45.5t-117.5 -121t-55.5 -176t-14.5 -210.5z" />
<glyph unicode="&#x153;" horiz-adv-x="1832" d="M92 512q0 119 25.5 217t81 168t145.5 108.5t219 38.5q152 0 242 -65.5t133 -173.5q47 111 143.5 175t259.5 64q162 0 250 -55t126 -138t38 -182.5t-16 -187.5h-699q2 -78 20.5 -141.5t59.5 -109.5t104.5 -71.5t153.5 -25.5q74 0 151 6t169 35l22 -149q-96 -27 -182 -36 t-186 -9q-170 0 -268.5 64.5t-145.5 172.5q-43 -109 -133 -173t-242 -64q-129 0 -219 38.5t-145.5 108.5t-81 168t-25.5 217zM287 512q0 -80 13 -149.5t45 -121t85 -80t133 -28.5q78 0 131.5 27.5t85 79t46 120t14.5 152.5q0 80 -13.5 149.5t-45 121t-85 80t-133.5 28.5 t-133 -28.5t-85 -80t-45 -121t-13 -149.5zM1040 598h519q10 53 7 107.5t-28 97.5t-75 70.5t-132 27.5q-78 0 -131 -23.5t-87 -63.5t-51.5 -96t-21.5 -120z" />
<glyph unicode="&#x178;" horiz-adv-x="1351" d="M41 1239v154h512v-154h-186l321 -604h4l320 604h-185v154h484v-154h-111l-428 -788v-297h133v-154h-461v154h134v297l-418 788h-119zM352 1536v246h164v-246h-164zM864 1536v246h164v-246h-164z" />
<glyph unicode="&#x2c6;" horiz-adv-x="860" d="M154 1147l215 287h120l218 -287h-103l-176 182l-172 -182h-102z" />
<glyph unicode="&#x2dc;" horiz-adv-x="921" d="M127 1219q59 98 112.5 138t106.5 40q37 0 74 -16.5t71.5 -37t65.5 -37t57 -16.5q29 0 61 11.5t73 72.5l51 -57q-70 -137 -162 -150q-18 -2 -43 4q-29 6 -59.5 22.5t-63.5 33t-63.5 30t-57.5 13.5q-18 0 -33.5 -3t-33 -12.5t-41 -30t-56.5 -53.5z" />
<glyph unicode="&#x2000;" horiz-adv-x="932" />
<glyph unicode="&#x2001;" horiz-adv-x="1864" />
<glyph unicode="&#x2002;" horiz-adv-x="932" />
<glyph unicode="&#x2003;" horiz-adv-x="1864" />
<glyph unicode="&#x2004;" horiz-adv-x="621" />
<glyph unicode="&#x2005;" horiz-adv-x="466" />
<glyph unicode="&#x2006;" horiz-adv-x="310" />
<glyph unicode="&#x2007;" horiz-adv-x="310" />
<glyph unicode="&#x2008;" horiz-adv-x="233" />
<glyph unicode="&#x2009;" horiz-adv-x="372" />
<glyph unicode="&#x200a;" horiz-adv-x="103" />
<glyph unicode="&#x2010;" horiz-adv-x="1024" d="M113 465v153h798v-153h-798z" />
<glyph unicode="&#x2011;" horiz-adv-x="1024" d="M113 465v153h798v-153h-798z" />
<glyph unicode="&#x2012;" horiz-adv-x="1024" d="M113 465v153h798v-153h-798z" />
<glyph unicode="&#x2013;" horiz-adv-x="1228" d="M113 465v153h1003v-153h-1003z" />
<glyph unicode="&#x2014;" horiz-adv-x="1433" d="M113 465v153h1208v-153h-1208z" />
<glyph unicode="&#x2018;" horiz-adv-x="409" d="M113 860v266l92 267h61l-41 -267h72v-266h-184z" />
<glyph unicode="&#x2019;" horiz-adv-x="409" d="M113 1126v267h184v-267l-92 -266h-62l41 266h-71z" />
<glyph unicode="&#x201a;" horiz-adv-x="409" d="M113 0v266h184v-266l-92 -266h-62l41 266h-71z" />
<glyph unicode="&#x201c;" horiz-adv-x="860" d="M113 860v266l92 267h61l-41 -267h72v-266h-184zM563 860v266l92 267h62l-41 -267h72v-266h-185z" />
<glyph unicode="&#x201d;" horiz-adv-x="860" d="M113 1126v267h184v-267l-92 -266h-62l41 266h-71zM563 1126v267h185v-267l-93 -266h-61l41 266h-72z" />
<glyph unicode="&#x201e;" horiz-adv-x="860" d="M113 0v266h184v-266l-92 -266h-62l41 266h-71zM563 0v266h185v-266l-93 -266h-61l41 266h-72z" />
<glyph unicode="&#x2022;" horiz-adv-x="471" d="M113 379v266h184v-266h-184z" />
<glyph unicode="&#x2026;" horiz-adv-x="1310" d="M154 0v266h184v-266h-184zM563 0v266h185v-266h-185zM973 0v266h184v-266h-184z" />
<glyph unicode="&#x202f;" horiz-adv-x="372" />
<glyph unicode="&#x2039;" horiz-adv-x="778" d="M113 455v112l553 355v-195l-359 -215l359 -215v-195z" />
<glyph unicode="&#x203a;" horiz-adv-x="778" d="M113 102v195l358 215l-358 215v195l553 -355v-112z" />
<glyph unicode="&#x205f;" horiz-adv-x="466" />
<glyph unicode="&#x20ac;" horiz-adv-x="1331" d="M51 502v92h125q-2 27 -2 55.5v57.5v46t2 46h-125v92h133q14 113 51 208t106 164.5t173 109.5t254 40q119 0 234.5 -16.5t246.5 -55.5v-286h-153v166q-104 23 -174 31t-140 8q-96 0 -164.5 -29t-113.5 -79t-70.5 -117.5t-38.5 -143.5h373l-6 -92h-381q-2 -23 -2 -46.5 v-45.5v-57.5t2 -55.5h387l-6 -92h-365q12 -80 39 -147.5t72 -117t111.5 -77t162.5 -27.5q70 0 139.5 6t174.5 31v168h153v-287q-131 -39 -246.5 -55t-234.5 -16q-147 0 -249.5 38.5t-171 108.5t-106.5 166t-53 209h-137z" />
<glyph unicode="&#x2122;" horiz-adv-x="1638" d="M35 1210v183h606v-183h-96v80h-152v-508h92v-94h-297v94h93v508h-152v-80h-94zM702 688v94h91v514h-91v97h246l205 -516h2l201 516h248v-97h-93v-514h93v-94h-297v94h86v416h-4l-205 -510h-82l-203 510h-2v-416h88v-94h-283z" />
<glyph unicode="&#x25fc;" horiz-adv-x="1024" d="M0 0v1024h1024v-1024h-1024z" />
</font>
</defs>
</svg>
