<?xml version="1.0" standalone="no"?>
<!DOCTYPE svg PUBLIC "-//W3C//DTD SVG 1.1//EN" "http://www.w3.org/Graphics/SVG/1.1/DTD/svg11.dtd" >
<svg xmlns="http://www.w3.org/2000/svg" xmlns:xlink="http://www.w3.org/1999/xlink" version="1.1">
<metadata></metadata>
<defs>
<font id="prelow01-mediumregular" horiz-adv-x="1085" >
<font-face units-per-em="2048" ascent="1536" descent="-512" />
<missing-glyph horiz-adv-x="368" />
<glyph horiz-adv-x="0" />
<glyph unicode="&#xd;" horiz-adv-x="0" />
<glyph horiz-adv-x="0" />
<glyph horiz-adv-x="0" />
<glyph horiz-adv-x="0" />
<glyph unicode="&#x9;" horiz-adv-x="0" />
<glyph unicode="&#xa;" horiz-adv-x="0" />
<glyph unicode=" "  horiz-adv-x="368" />
<glyph unicode="&#x09;" horiz-adv-x="368" />
<glyph unicode="&#xa0;" horiz-adv-x="368" />
<glyph unicode="!" horiz-adv-x="409" d="M113 0v266h184v-266h-184zM113 1393h184l-10 -953h-164z" />
<glyph unicode="&#x22;" horiz-adv-x="819" d="M113 1393h184l-21 -277h-143zM522 1393h185l-21 -277h-143z" />
<glyph unicode="#" horiz-adv-x="1245" d="M113 236l12 122h205l32 308h-204l12 122h205l24 236h133l-24 -236h287l24 236h133l-24 -236h205l-13 -122h-205l-32 -308h204l-12 -122h-205l-26 -236h-133l26 236h-286l-27 -236h-133l26 236h-204zM463 358h287l32 308h-286z" />
<glyph unicode="$" horiz-adv-x="1228" d="M113 51l32 164q125 -33 247 -47t222 -14q80 0 137.5 19.5t92.5 50t51 70.5t16 83q0 63 -37.5 105t-92 70t-115 44t-105.5 29q-84 23 -161.5 58.5t-137 85.5t-94.5 118.5t-35 156.5q0 94 34 162t94.5 113t141 66.5t175.5 25.5v186h81v-186q63 -2 115.5 -7t101 -13.5 t98.5 -20.5t111 -29l-45 -163q-143 35 -240.5 48t-185.5 13q-80 0 -133 -17.5t-84.5 -45t-45 -63.5t-13.5 -75q0 -61 39 -103t94 -70.5t116.5 -46t108.5 -30.5q84 -20 161 -50.5t134.5 -79t91 -114t33.5 -155.5q0 -96 -33.5 -171t-95 -126t-145.5 -78.5t-183 -31.5v-187h-81 v185q-139 4 -250 21t-215 50z" />
<glyph unicode="%" horiz-adv-x="1556" d="M92 1116q0 133 70.5 210t208.5 77q135 0 206.5 -77t71.5 -210t-71.5 -209t-206.5 -76q-137 0 -208 76t-71 209zM209 1116q0 -188 162 -188q160 0 159 188q0 92 -39.5 141.5t-119.5 49.5t-121 -49.5t-41 -141.5zM338 0l758 1393h123l-758 -1393h-123zM907 274 q0 133 71 210t208 77q135 0 206.5 -76.5t71.5 -210.5q0 -133 -71.5 -208.5t-206.5 -75.5q-137 0 -208 75.5t-71 208.5zM1024 274q0 -188 162 -188q160 0 160 188q0 92 -40 141.5t-120 49.5t-121 -49t-41 -142z" />
<glyph unicode="&#x26;" horiz-adv-x="1443" d="M106 356q0 55 15.5 106.5t53.5 100.5t103.5 97.5t165.5 97.5q-29 33 -58.5 69.5t-54 75.5t-40 82t-15.5 92q0 86 34 149.5t88.5 104.5t124 61.5t143.5 20.5q166 0 262 -82.5t96 -236.5q0 -43 -14.5 -86t-50 -88.5t-98 -92.5t-159.5 -94l359 -352q106 137 137 336h174 q-16 -111 -61 -233t-131 -226l172 -176l-121 -131l-180 186q-86 -72 -202 -114.5t-265 -42.5q-123 0 -213 27.5t-148.5 77.5t-87.5 118.5t-29 152.5zM301 383q0 -41 14.5 -84t50 -79t94 -59.5t144.5 -23.5t173 28t159 93l-395 404q-51 -25 -95.5 -53.5t-76 -61.5t-50 -74 t-18.5 -90zM455 1087q0 -74 41 -132t100 -121q109 55 180.5 118.5t71.5 147.5q0 57 -20.5 94t-50 56.5t-62.5 26.5t-56 7q-63 0 -103 -20.5t-62.5 -51t-30.5 -64.5t-8 -61z" />
<glyph unicode="'" horiz-adv-x="409" d="M113 1393h184l-21 -277h-143z" />
<glyph unicode="(" horiz-adv-x="675" d="M127 696q0 256 92 511t262 472h123q-154 -254 -223.5 -494.5t-69.5 -488.5q0 -246 70 -484.5t223 -498.5h-123q-170 217 -262 473t-92 510z" />
<glyph unicode=")" horiz-adv-x="675" d="M72 -287q152 260 221 499t69 484q0 248 -69.5 488.5t-220.5 494.5h123q170 -217 261 -472t91 -511q0 -254 -91 -510t-261 -473h-123z" />
<glyph unicode="*" horiz-adv-x="851" d="M82 1108l31 106l272 -81l-12 260h108l-14 -260l270 81l33 -106l-278 -41l182 -221l-84 -66l-166 248l-162 -248l-84 66l182 221z" />
<glyph unicode="+" horiz-adv-x="1024" d="M113 465v153h321v324h154v-324h323v-153h-323v-322h-154v322h-321z" />
<glyph unicode="," horiz-adv-x="409" d="M113 0v266h184v-266l-92 -266h-62l41 266h-71z" />
<glyph unicode="-" horiz-adv-x="1024" d="M113 465v153h798v-153h-798z" />
<glyph unicode="." horiz-adv-x="409" d="M113 0v266h184v-266h-184z" />
<glyph unicode="/" horiz-adv-x="1105" d="M92 0l758 1393h164l-758 -1393h-164z" />
<glyph unicode="0" horiz-adv-x="1208" d="M113 707q0 145 21.5 274t76.5 225.5t150.5 151.5t242.5 55t242.5 -55t151 -151.5t77 -225.5t21.5 -274q0 -147 -21.5 -279.5t-77 -232t-151 -157.5t-242.5 -58t-242.5 58t-150.5 157.5t-76.5 231.5t-21.5 280zM307 707q0 -111 12.5 -214.5t45 -183.5t91 -128t148.5 -48 t147.5 48t91.5 128t46 183.5t12 214.5t-12 211t-46 175.5t-91.5 121t-147.5 45.5t-148.5 -45.5t-91 -121t-45 -176t-12.5 -210.5z" />
<glyph unicode="1" horiz-adv-x="757" d="M51 1157q121 53 241 117.5t200 128.5h133v-1403h-185v1182l-340 -178z" />
<glyph unicode="2" horiz-adv-x="1126" d="M113 0v178q219 145 354 264t209 214.5t98.5 169t24.5 130.5q0 96 -32 152.5t-77 86.5t-94 39t-84 9q-76 0 -154.5 -15.5t-189.5 -64.5l-55 148q55 25 107 44t104.5 31.5t107.5 19.5t121 7q113 0 195.5 -33.5t137 -90t81 -132.5t26.5 -160q0 -215 -156.5 -414.5 t-463.5 -414.5v-4h641v-164h-901z" />
<glyph unicode="3" horiz-adv-x="1167" d="M113 76l57 143q92 -47 187.5 -66.5t199.5 -19.5q100 0 160.5 25.5t93.5 63.5t43 81t10 76q0 111 -79.5 175t-252.5 64h-174v154h166q82 0 140.5 22.5t95.5 58.5t53 82t16 93q0 35 -11 75t-40.5 74.5t-83 58.5t-137.5 24q-98 0 -181 -21.5t-173 -64.5l-58 141 q109 53 220.5 75.5t222.5 22.5q193 0 309.5 -94t116.5 -270q0 -129 -75 -211t-189 -121v-4q147 -29 226 -122t79 -222q0 -186 -124 -287.5t-364 -101.5q-123 0 -235.5 21.5t-218.5 74.5z" />
<glyph unicode="4" horiz-adv-x="1208" d="M92 358v154q170 186 329 409.5t269 471.5h232v-881h194v-154h-194v-358h-185v358h-645zM283 512h454v639h-4q-94 -182 -207.5 -335.5t-242.5 -303.5z" />
<glyph unicode="5" horiz-adv-x="1167" d="M113 82l55 141q111 -53 197 -71.5t178 -18.5q150 0 233.5 83t83.5 224q0 51 -13 102.5t-46 93.5t-85 68.5t-132 26.5q-162 0 -267 -135l-135 12l33 785h758v-164h-598l-29 -467l4 -2q53 55 129 93t168 38q186 0 297 -114.5t111 -325.5q0 -231 -135.5 -351t-366.5 -120 q-123 0 -225.5 24.5t-214.5 77.5z" />
<glyph unicode="6" horiz-adv-x="1167" d="M113 614q0 229 46 383t126 246t185 131t224 39q100 0 173 -15.5t145 -37.5l-25 -141q-84 23 -147.5 32t-130.5 9q-109 0 -187 -48.5t-128 -123t-73.5 -163.5t-23.5 -171l4 -2q59 80 144 130t184 50q201 0 313.5 -125t112.5 -356q0 -111 -35 -198t-95.5 -148.5t-143.5 -93 t-181 -31.5q-139 0 -233.5 53t-150.5 142t-79.5 203t-23.5 236zM311 606q-4 -90 4.5 -175t38 -150.5t86 -106.5t148.5 -41q55 0 104 20.5t86 60.5t59.5 99.5t22.5 137.5q0 51 -11 108t-42 103.5t-85 77t-140 30.5q-84 0 -153 -47t-118 -117z" />
<glyph unicode="7" horiz-adv-x="1024" d="M92 1229v164h840v-133q-78 -127 -156 -271.5t-147.5 -302.5t-123.5 -330t-85 -356h-205q23 145 76 309t123.5 327t152.5 315.5t162 273.5v4h-637z" />
<glyph unicode="8" horiz-adv-x="1208" d="M113 344q0 70 24.5 126t67.5 100t102.5 78t128.5 59v4q-61 27 -113.5 59.5t-90 73.5t-58 94t-20.5 119q0 86 35.5 152.5t97 111.5t144.5 68.5t177 23.5q92 0 173 -23.5t141.5 -67.5t96.5 -109.5t36 -147.5q0 -63 -20.5 -111.5t-57.5 -87.5t-90 -70.5t-117 -60.5v-4 q72 -31 131.5 -66.5t102.5 -79.5t67.5 -98.5t24.5 -124.5q0 -94 -37 -165.5t-102.5 -119.5t-156.5 -72.5t-202 -24.5q-106 0 -195.5 22.5t-154 68.5t-100 114.5t-35.5 158.5zM301 362q0 -47 16.5 -91t52.5 -77.5t95 -55t145 -21.5q82 0 139.5 19.5t91 51t49 73.5t15.5 87 q0 63 -29.5 108.5t-77.5 78t-106.5 56t-113.5 46.5q-53 -18 -102.5 -43t-88.5 -57.5t-62.5 -76t-23.5 -98.5zM338 1059q0 -53 23.5 -94t63.5 -72t91 -53.5t109 -38.5q51 18 95 40.5t77.5 52.5t53 67.5t19.5 87.5q0 63 -25.5 106t-65.5 69.5t-88 38t-93 11.5q-41 0 -87 -11.5 t-84 -36t-63.5 -65.5t-25.5 -102z" />
<glyph unicode="9" horiz-adv-x="1167" d="M113 942q0 111 33.5 198t95 148.5t144.5 93t181 31.5q139 0 233.5 -53t151 -142.5t80 -203t23.5 -236.5q0 -231 -46 -384.5t-126 -246t-185.5 -130t-224.5 -37.5q-100 0 -173 14t-144 37l22 143q84 -23 148.5 -32t130.5 -9q109 0 186.5 48t127.5 123t73.5 164t25.5 171 l-4 2q-59 -82 -144 -131t-185 -49q-199 0 -311.5 125t-112.5 356zM307 942q0 -53 11.5 -109.5t42 -103.5t85 -77.5t140.5 -30.5q84 0 151.5 46.5t116.5 116.5q4 90 -4 175t-38 152t-86 108t-148 41q-55 0 -104.5 -20.5t-86.5 -60.5t-58.5 -99.5t-21.5 -137.5z" />
<glyph unicode=":" horiz-adv-x="409" d="M113 0v266h184v-266h-184zM113 676v266h184v-266h-184z" />
<glyph unicode=";" horiz-adv-x="409" d="M113 0v266h184v-266l-92 -266h-62l41 266h-71zM113 676v266h184v-266h-184z" />
<glyph unicode="&#x3c;" horiz-adv-x="778" d="M113 455v112l553 334v-166l-359 -223l359 -223v-166z" />
<glyph unicode="=" horiz-adv-x="1024" d="M113 260v154h798v-154h-798zM113 670v153h798v-153h-798z" />
<glyph unicode="&#x3e;" horiz-adv-x="778" d="M113 113v166l358 233l-358 233v166l553 -344v-112z" />
<glyph unicode="?" horiz-adv-x="983" d="M92 1333q86 35 191 57.5t209 22.5q121 0 198.5 -33.5t121.5 -86t61.5 -116t17.5 -122.5q0 -90 -27.5 -152.5t-70.5 -107.5t-91.5 -79t-91.5 -66t-70.5 -69.5t-27.5 -88.5v-62h-164v62q0 76 25.5 127t65.5 91t85 71.5t85 66.5t65.5 80t25.5 108q0 70 -26.5 111t-65.5 61.5 t-82 25.5t-75 5q-51 0 -132 -15.5t-174 -47.5zM338 0v266h184v-266h-184z" />
<glyph unicode="@" horiz-adv-x="1699" d="M61 518q0 178 62.5 328.5t173.5 259t262.5 169t329.5 60.5q156 0 292 -48t237.5 -136t160.5 -211t59 -272q0 -109 -31.5 -206t-95 -170t-157.5 -115t-219 -42h-123v80h-2q-53 -51 -112.5 -72.5t-137.5 -21.5q-119 0 -186.5 63.5t-67.5 167.5q0 68 25.5 115t70.5 76.5 t106.5 42t133.5 12.5h170v74q0 78 -37 118.5t-137 40.5q-45 0 -115 -11t-148 -34l-26 99q78 27 160 43t165 16q68 0 120.5 -12t89 -43t56 -82t19.5 -127v-436q106 0 176 43t111 105.5t57.5 135t16.5 134.5q0 129 -50.5 233t-136.5 178t-200.5 114t-243.5 40 q-154 0 -284 -51.5t-224 -144.5t-147.5 -224t-53.5 -289q0 -143 48 -264t134.5 -209t205 -137t259.5 -49l-10 -105q-166 0 -305 58.5t-238.5 161t-156 241.5t-56.5 303zM651 365q0 -61 42 -96.5t120 -35.5q72 0 122 21.5t77 44.5v211h-166q-111 0 -153 -38t-42 -107z" />
<glyph unicode="A" horiz-adv-x="1331" d="M72 0l479 1403h240l469 -1403h-218l-114 352h-533l-119 -352h-204zM436 516h451l-219 643h-4z" />
<glyph unicode="B" horiz-adv-x="1249" d="M133 0v1393h563q209 0 314.5 -96.5t105.5 -258.5q0 -119 -59.5 -202.5t-167.5 -118.5v-4q129 -29 198.5 -118t69.5 -222q0 -174 -105.5 -273.5t-314.5 -99.5h-604zM328 174h379q117 0 181 52.5t64 172.5q0 225 -266 226h-358v-451zM328 799h348q117 0 176 50t59 159 q0 100 -59 155.5t-176 55.5h-348v-420z" />
<glyph unicode="C" horiz-adv-x="1269" d="M113 707q0 145 25.5 274t92 225.5t182 151.5t294.5 55q119 0 234.5 -16.5t246.5 -55.5l-45 -163q-80 18 -139.5 30.5t-108.5 19.5t-90 9t-84 2q-121 0 -199 -41t-124 -113.5t-63.5 -170t-17.5 -207.5q0 -119 17.5 -220.5t63.5 -175t124 -115.5t199 -42q43 0 84 2t90 9 t108.5 19.5t139.5 30.5l45 -164q-131 -39 -247 -55t-234 -16q-178 0 -294 57t-182.5 156.5t-92 231.5t-25.5 282z" />
<glyph unicode="D" horiz-adv-x="1331" d="M133 0v1393h496q172 0 285.5 -52.5t181 -144.5t95.5 -218t28 -271q0 -147 -28 -276.5t-95.5 -224.5t-181 -150.5t-285.5 -55.5h-496zM328 174h301q117 0 191.5 41t117.5 113.5t59.5 170t16.5 208.5t-16.5 205t-59.5 162.5t-118 106.5t-191 38h-301v-1045z" />
<glyph unicode="E" horiz-adv-x="1146" d="M133 0v1393h891v-174h-696v-410h604v-174h-604v-461h706v-174h-901z" />
<glyph unicode="F" horiz-adv-x="1095" d="M133 0v1393h871v-174h-676v-451h583v-174h-583v-594h-195z" />
<glyph unicode="G" horiz-adv-x="1310" d="M113 707q0 145 25.5 274t92 225.5t182 151.5t294.5 55q119 0 229.5 -16.5t241.5 -55.5l-45 -163q-80 18 -138.5 30.5t-104.5 19.5t-86 9t-83 2q-121 0 -199 -41t-124 -113.5t-63.5 -170t-17.5 -207.5q0 -119 17.5 -220.5t63.5 -175t124 -115.5t199 -42q78 0 141.5 18 t120.5 49v322h-266v174h461v-627q-106 -45 -215 -77.5t-256 -32.5q-178 0 -294 57t-182.5 156.5t-92 231.5t-25.5 282z" />
<glyph unicode="H" horiz-adv-x="1310" d="M133 0v1393h195v-584h655v584h195v-1393h-195v635h-655v-635h-195z" />
<glyph unicode="I" horiz-adv-x="460" d="M133 0v1393h195v-1393h-195z" />
<glyph unicode="J" horiz-adv-x="686" d="M35 -6l18 164q35 -4 62.5 -7.5t58.5 -3.5q92 0 138 48.5t46 162.5v1035h195v-1045q0 -102 -22.5 -173t-64.5 -114t-103.5 -62t-137.5 -19q-53 0 -101 4t-89 10z" />
<glyph unicode="K" horiz-adv-x="1284" d="M133 0v1393h195v-723l637 723h233l-502 -578l512 -815h-243l-410 659l-227 -256v-403h-195z" />
<glyph unicode="L" horiz-adv-x="1105" d="M133 0v1393h195v-1219h686v-174h-881z" />
<glyph unicode="M" horiz-adv-x="1638" d="M133 0v1393h256l434 -1069h4l422 1069h256v-1393h-194v1034h-4l-422 -1034h-144l-415 1034h-4v-1034h-189z" />
<glyph unicode="N" horiz-adv-x="1331" d="M133 0v1393h195l676 -1035h4v1035h190v-1393h-194l-678 1012h-4v-1012h-189z" />
<glyph unicode="O" horiz-adv-x="1413" d="M113 707q0 145 25.5 274t92 225.5t182 151.5t294.5 55q178 0 292.5 -55t182 -151.5t93 -225.5t25.5 -274q0 -147 -25.5 -279.5t-93 -232t-182 -157.5t-292.5 -58t-294 58t-182.5 157.5t-92 231.5t-25.5 280zM317 707q0 -111 14.5 -213.5t55.5 -180t118 -124t202 -46.5 t200.5 46.5t117.5 124t56.5 180t14.5 213.5t-14.5 210t-56.5 172.5t-117.5 116.5t-200.5 43t-202 -43t-118 -116.5t-55.5 -173t-14.5 -209.5z" />
<glyph unicode="P" horiz-adv-x="1228" d="M133 0v1393h574q104 0 184 -31t134 -87t83 -133t29 -169q0 -193 -111 -306.5t-319 -113.5h-379v-553h-195zM328 727h358q117 0 183.5 58.5t66.5 187.5q0 119 -66.5 182.5t-183.5 63.5h-358v-492z" />
<glyph unicode="Q" horiz-adv-x="1413" d="M113 707q0 145 25.5 274t92 225.5t182 151.5t294.5 55q178 0 292.5 -55t182 -151.5t93 -225.5t25.5 -274q0 -141 -25.5 -259t-80.5 -205t-144 -139.5t-216 -58.5q20 -37 87.5 -56.5t139.5 -25.5q29 -1 58 -1q73 0 151 7v-174q-71 -10 -137 -10q-42 0 -82 4 q-129 10 -231.5 57.5t-155.5 133.5q-164 6 -269.5 67.5t-169 159.5t-88 227.5t-24.5 272.5zM317 707q0 -111 14.5 -213.5t55.5 -180t118 -124t202 -46.5t200.5 46.5t117.5 124t56.5 180t14.5 213.5t-14.5 210t-56.5 172.5t-117.5 116.5t-200.5 43t-202 -43t-118 -116.5 t-55.5 -173t-14.5 -209.5z" />
<glyph unicode="R" horiz-adv-x="1259" d="M133 0v1393h574q104 0 184 -32t134 -89.5t83 -135t29 -169.5q0 -74 -19.5 -139.5t-58.5 -117t-97.5 -87t-134.5 -50.5l355 -573h-228l-329 543h-297v-543h-195zM328 717h348q117 0 188.5 61.5t71.5 188.5q0 121 -66.5 186.5t-183.5 65.5h-358v-502z" />
<glyph unicode="S" horiz-adv-x="1228" d="M113 51l32 164q160 -39 271.5 -50t197.5 -11q76 0 132.5 18t93.5 49t54 70t17 82q0 63 -33.5 105t-85 69.5t-113 44t-116.5 33.5q-86 23 -163.5 57.5t-137 85.5t-94.5 119.5t-35 156.5q0 98 38 169t103.5 115t152.5 64.5t187 20.5q117 0 228.5 -16.5t242.5 -55.5 l-45 -163q-80 18 -140 30.5t-109.5 19.5t-91.5 9t-85 2q-78 0 -130 -16.5t-84.5 -44t-47 -63.5t-14.5 -77q0 -59 34 -100t87 -69.5t115.5 -47t121.5 -33.5q84 -18 161 -49.5t134.5 -79t91 -114t33.5 -156.5q0 -104 -38 -181t-105.5 -127t-160 -75.5t-198.5 -25.5 q-117 0 -243.5 16t-257.5 55z" />
<glyph unicode="T" horiz-adv-x="1146" d="M92 1219v174h963v-174h-385v-1219h-195v1219h-383z" />
<glyph unicode="U" horiz-adv-x="1310" d="M133 492v901h195v-901q0 -57 9 -119t43 -113t100 -84t179 -33q106 0 171 33t99 84t44 112.5t10 119.5v901h195v-901q0 -268 -137.5 -390t-385.5 -122q-250 0 -386 121.5t-136 390.5z" />
<glyph unicode="V" horiz-adv-x="1331" d="M72 1393h215l387 -1162h2l377 1162h207l-469 -1403h-240z" />
<glyph unicode="W" horiz-adv-x="1925" d="M72 1393h215l282 -1153h2l281 1153h229l287 -1153h2l277 1153h206l-364 -1403h-250l-274 1089h-4l-275 -1089h-252z" />
<glyph unicode="X" horiz-adv-x="1331" d="M76 0l454 727l-417 666h227l322 -504h4l313 504h229l-420 -666l465 -727h-233l-369 567h-4l-352 -567h-219z" />
<glyph unicode="Y" horiz-adv-x="1269" d="M72 1393h221l344 -703h4l344 703h213l-467 -901v-492h-194v492z" />
<glyph unicode="Z" horiz-adv-x="1146" d="M82 0v143l698 1071v5h-657v174h921v-144l-692 -1071v-4h713v-174h-983z" />
<glyph unicode="[" horiz-adv-x="614" d="M113 -287v1966h430v-112h-236v-1741h236v-113h-430z" />
<glyph unicode="\" horiz-adv-x="1105" d="M92 1393h164l758 -1393h-164z" />
<glyph unicode="]" horiz-adv-x="614" d="M72 -174h235v1741h-235v112h430v-1966h-430v113z" />
<glyph unicode="^" horiz-adv-x="778" d="M113 1044l215 390h121l217 -390h-103l-176 285l-172 -285h-102z" />
<glyph unicode="_" horiz-adv-x="1024" d="M113 -123h798v-113h-798v113z" />
<glyph unicode="`" horiz-adv-x="522" d="M123 1393h153l123 -246h-102z" />
<glyph unicode="a" horiz-adv-x="1034" d="M82 281q0 86 32.5 145t91 97t137.5 54.5t169 16.5h225v102q0 102 -54 148.5t-181 46.5q-59 0 -135 -8.5t-191 -30.5l-29 149q104 20 207 31.5t189 11.5q92 0 162.5 -15t118.5 -54t73 -103.5t25 -164.5v-707h-185v102h-4q-74 -66 -148.5 -94t-174.5 -28q-154 0 -241 82.5 t-87 218.5zM266 297q0 -82 57.5 -128t157.5 -46q88 0 154.5 28.5t101.5 57.5v272h-215q-143 0 -199.5 -48t-56.5 -136z" />
<glyph unicode="b" d="M113 -6v1440h184v-512h4q53 53 137 87.5t176 34.5q106 0 179 -40.5t118 -113.5t63.5 -170t18.5 -208t-20.5 -208t-66.5 -170t-120.5 -113.5t-181.5 -40.5q-88 0 -171 31.5t-142 84.5h-4l-33 -102h-141zM297 219q31 -25 95.5 -55.5t150.5 -30.5q74 0 124 31t78.5 82 t41 119.5t12.5 146.5q0 76 -12.5 145.5t-41 120.5t-79 82t-123.5 31q-86 0 -150.5 -31t-95.5 -57v-584z" />
<glyph unicode="c" horiz-adv-x="983" d="M92 512q0 119 25.5 217t85 168t155 108.5t236.5 38.5q96 0 176 -12t172 -35l-35 -147q-61 14 -107 23.5t-83 12.5t-66.5 4t-56.5 1q-80 0 -138.5 -27.5t-96 -78t-55 -120t-17.5 -153.5t17.5 -153.5t55 -120t96 -78t138.5 -27.5q27 0 56.5 1t66.5 4t83 11.5t107 24.5 l35 -149q-92 -23 -172 -34t-176 -11q-141 0 -236.5 38.5t-155 108.5t-85 168t-25.5 217z" />
<glyph unicode="d" d="M92 512q0 111 20.5 208t66.5 170t120 113.5t182 40.5q88 0 168 -32.5t135 -85.5h4v508h185v-1434h-185v102h-4q-55 -53 -138 -87.5t-175 -34.5q-109 0 -180.5 40.5t-116.5 113.5t-63.5 170t-18.5 208zM287 512q0 -78 11 -146.5t41 -119.5t79 -82t125 -31q86 0 149.5 31 t95.5 55v584q-33 27 -96 57.5t-149 30.5q-76 0 -125 -31t-79 -82t-41 -120.5t-11 -145.5z" />
<glyph unicode="e" d="M92 512q0 119 26.5 217t86 168t155 108.5t234.5 38.5q117 0 194.5 -30.5t123.5 -81.5t66.5 -114.5t25.5 -129.5q2 -23 2 -47q0 -27 -2 -54q-4 -52 -13 -106h-700q2 -78 21.5 -141.5t59.5 -109.5t103.5 -71.5t153.5 -25.5q76 0 152.5 6t166.5 35l25 -149q-98 -27 -183 -36 t-186 -9q-141 0 -239.5 38.5t-159 108.5t-87 168t-26.5 217zM291 598h520q4 29 7 55.5t-1 53.5q-4 39 -17.5 74.5t-41 62t-70.5 42t-104 15.5q-78 0 -131.5 -23.5t-87 -63.5t-51 -96t-23.5 -120z" />
<glyph unicode="f" horiz-adv-x="706" d="M41 891v121l154 12v127q0 74 14 127t49 88t92.5 51.5t141.5 16.5q76 0 163 -17l-18 -143q-33 6 -57.5 8t-47.5 2q-90 0 -121.5 -30.5t-31.5 -116.5v-113h246v-133h-246v-891h-184v891h-154z" />
<glyph unicode="g" horiz-adv-x="1136" d="M61 -164q0 70 42 125t135 102v5q-43 23 -62 60q-15 30 -15 64q0 7 1 15q2 53 35.5 105.5t99.5 93.5v4q-78 39 -124 112.5t-46 173.5q0 170 111.5 259t304.5 89q41 0 75.5 -6t63.5 -14h362v-113h-198q59 -43 79.5 -102t20.5 -113q0 -86 -30.5 -149.5t-85 -105.5 t-128 -62.5t-159.5 -20.5q-45 0 -86 7.5t-64 15.5q-12 -12 -22.5 -27.5t-18.5 -31.5q-16 -33 -16 -64q0 -13 2 -26q10 -42 70 -46l368 -22q160 -10 229.5 -70.5t69.5 -165.5q0 -178 -143.5 -268t-450.5 -90q-209 0 -314.5 64.5t-105.5 201.5zM215 -133q0 -86 77 -130 t224 -44q74 0 140.5 12t115.5 37t79 62.5t30 89.5q0 45 -37 80.5t-133 39.5l-379 21q-49 -35 -83 -72t-34 -96zM301 696q0 -104 64.5 -159.5t177.5 -55.5q109 0 172 56.5t63 158.5q0 104 -64.5 165t-170.5 61q-121 0 -181.5 -60.5t-60.5 -165.5z" />
<glyph unicode="h" d="M113 0v1434h184v-553h4q74 72 165 117.5t200 45.5q154 0 230.5 -88t76.5 -249v-707h-185v666q0 100 -45 162.5t-159 62.5q-45 0 -87 -12.5t-79 -30t-68 -37.5t-53 -39v-772h-184z" />
<glyph unicode="i" horiz-adv-x="409" d="M113 0v1024h184v-1024h-184zM113 1137v256h184v-256h-184z" />
<glyph unicode="j" horiz-adv-x="491" d="M-82 -416l16 144q35 -4 59.5 -7.5t47.5 -3.5q86 0 120 32t34 118v1157h184v-1174q0 -145 -64.5 -212.5t-232.5 -67.5q-37 0 -80 4t-84 10zM195 1137v256h184v-256h-184z" />
<glyph unicode="k" horiz-adv-x="1105" d="M113 0v1434h184v-828l491 418h226l-389 -354l409 -670h-219l-319 565l-199 -166v-399h-184z" />
<glyph unicode="l" horiz-adv-x="409" d="M113 0v1434h184v-1434h-184z" />
<glyph unicode="m" horiz-adv-x="1699" d="M113 0v1024h184v-143h4q61 66 143 114.5t191 48.5q217 0 280 -180q72 80 165.5 130t199.5 50q154 0 230.5 -88t76.5 -249v-707h-184v666q0 100 -47 162.5t-158 62.5q-41 0 -78 -12.5t-69.5 -30t-61 -39t-53.5 -39.5q6 -49 6 -113v-657h-184v672q-2 49 -13.5 89t-36 68.5 t-62.5 45t-93 16.5q-82 0 -145.5 -41t-110.5 -78v-772h-184z" />
<glyph unicode="n" d="M113 0v1024h184v-143h4q74 72 165 117.5t200 45.5q154 0 230.5 -88t76.5 -249v-707h-185v666q0 100 -45 162.5t-159 62.5q-45 0 -87 -12.5t-79 -30t-68 -37.5t-53 -39v-772h-184z" />
<glyph unicode="o" horiz-adv-x="1126" d="M92 512q0 119 25.5 217t81 168t145.5 108.5t219 38.5t218 -38.5t145.5 -108.5t82 -168t25.5 -217t-25.5 -217t-82 -168t-145.5 -108.5t-218 -38.5t-219 38.5t-145.5 108.5t-81 168t-25.5 217zM287 512q0 -80 13 -149.5t45 -121t85 -80t133 -28.5t133.5 28.5t85 80t45 121 t13.5 149.5t-13.5 149.5t-45 121t-85 80t-133.5 28.5t-133 -28.5t-85 -80t-45 -121t-13 -149.5z" />
<glyph unicode="p" d="M113 -410v1434h184v-102h4q53 53 137 87.5t176 34.5q106 0 179 -40.5t118 -113.5t63.5 -170t18.5 -208t-20.5 -208t-66.5 -170t-120.5 -113.5t-181.5 -40.5q-88 0 -169 31.5t-134 84.5h-4v-506h-184zM297 219q31 -25 95.5 -55.5t150.5 -30.5q74 0 124 31t78.5 82 t41 119.5t12.5 146.5q0 76 -12.5 145.5t-41 120.5t-79 82t-123.5 31q-86 0 -150.5 -31t-95.5 -57v-584z" />
<glyph unicode="q" d="M92 512q0 111 20.5 208t66.5 170t120 113.5t182 40.5q88 0 171 -32.5t143 -85.5h4l32 102h142v-1438h-185v512h-4q-55 -53 -138 -87.5t-175 -34.5q-109 0 -180.5 40.5t-116.5 113.5t-63.5 170t-18.5 208zM287 512q0 -78 11 -146.5t41 -119.5t79 -82t125 -31 q86 0 149.5 31t95.5 55v584q-33 27 -96 57.5t-149 30.5q-76 0 -125 -31t-79 -82t-41 -120.5t-11 -145.5z" />
<glyph unicode="r" horiz-adv-x="757" d="M113 0v1024h184v-164h4q31 35 72 68t90 59.5t105.5 41.5t117.5 15v-174q-57 0 -113.5 -11t-107.5 -28.5t-94 -38t-74 -40.5v-752h-184z" />
<glyph unicode="s" horiz-adv-x="983" d="M82 25l33 149q123 -31 228.5 -39t158.5 -8q70 0 112.5 18.5t65 43t30 50t7.5 40.5q0 27 -10.5 49t-37 40.5t-71.5 35t-113 28.5q-82 14 -151.5 38t-120.5 60.5t-81 92t-30 135.5q0 147 98.5 216.5t280.5 69.5q119 0 218.5 -12t191.5 -35l-35 -147q-123 31 -217 38t-147 7 q-70 0 -110 -16.5t-61.5 -38t-27.5 -44t-6 -34.5q0 -25 8 -47.5t31.5 -42t66.5 -35.5t113 -31q80 -18 151.5 -39.5t126 -56.5t86 -87t31.5 -132q0 -154 -99.5 -232.5t-279.5 -78.5q-121 0 -234.5 11t-205.5 34z" />
<glyph unicode="t" horiz-adv-x="768" d="M41 891v121l154 12l22 287h162v-287h287v-133h-287v-563q0 -98 37 -149.5t137 -51.5q23 0 47.5 3t56.5 7l19 -143q-41 -6 -94.5 -10t-89.5 -4q-158 0 -227.5 71.5t-69.5 245.5v594h-154z" />
<glyph unicode="u" d="M113 317v707h184v-666q0 -100 46 -162.5t159 -62.5q43 0 85 12.5t78.5 30t68.5 37.5t54 37v774h185v-1024h-185v143h-4q-74 -74 -165 -118.5t-199 -44.5q-154 0 -230.5 88t-76.5 249z" />
<glyph unicode="v" horiz-adv-x="1146" d="M82 1024h207l286 -827h5l288 827h197l-381 -1034h-223z" />
<glyph unicode="w" horiz-adv-x="1617" d="M82 1024h205l227 -827h4l205 827h180l217 -827h4l217 827h195l-307 -1034h-205l-215 749h-4l-207 -749h-205z" />
<glyph unicode="x" horiz-adv-x="1116" d="M72 0l374 532l-344 492h213l250 -356h4l246 356h193l-344 -485l380 -539h-219l-280 395h-4l-271 -395h-198z" />
<glyph unicode="y" horiz-adv-x="1146" d="M82 1024h207l297 -838h4l278 838h197l-385 -1085q-35 -100 -76 -171t-91 -115t-110.5 -63.5t-136.5 -19.5q-37 0 -79 4t-74 10l16 154q57 -10 96 -10q51 0 91 22.5t71 58t53.5 80.5t38.5 91z" />
<glyph unicode="z" horiz-adv-x="962" d="M55 0v133l594 744v4h-563v143h799v-133l-588 -744v-4h608v-143h-850z" />
<glyph unicode="{" horiz-adv-x="696" d="M113 645v103q53 8 82.5 28.5t43 52t15.5 73.5t2 91q0 92 -10 192.5t-10 194.5q0 100 29.5 159.5t81.5 90.5t123 40t155 9v-82q-37 0 -72 -4t-62.5 -25.5t-44 -66.5t-16.5 -129q0 -47 4 -102.5t8 -112.5t8.5 -113.5t4.5 -103.5q0 -61 -13.5 -102t-38 -69t-59.5 -44 t-76 -27v-4q41 -10 76 -26.5t59.5 -44t38 -68.5t13.5 -102q0 -47 -4.5 -103.5t-8.5 -114t-8 -113t-4 -102.5q0 -84 16.5 -130t44 -67.5t62.5 -24.5t72 -3v-82q-84 0 -155 9.5t-123 40t-81.5 90t-29.5 159.5q0 94 10 194.5t10 192.5q0 49 -2 91t-15.5 74t-43 52.5t-82.5 28.5 z" />
<glyph unicode="|" horiz-adv-x="389" d="M133 -205v1802h123v-1802h-123z" />
<glyph unicode="}" horiz-adv-x="696" d="M72 -205q37 0 71.5 3t62 24.5t44 68t16.5 129.5q0 47 -4 102.5t-8 113t-8 114t-4 103.5q0 61 13 102t37.5 68.5t58.5 44t75 26.5v4q-41 10 -75 26.5t-58.5 44.5t-37.5 69t-13 102q0 47 4 103.5t8 113.5t8 112.5t4 102.5q0 84 -16.5 129t-44 66.5t-62 25.5t-71.5 4v82 q84 0 154.5 -9t122.5 -40t82 -90t30 -160q0 -94 -10.5 -194.5t-10.5 -192.5q0 -49 2 -91t15.5 -73.5t43 -52t83.5 -28.5v-103q-53 -8 -83 -28.5t-43.5 -52.5t-15.5 -73.5t-2 -91.5q0 -92 10.5 -192.5t10.5 -194.5q0 -100 -30 -159.5t-82 -90t-122.5 -40t-154.5 -9.5v82z" />
<glyph unicode="~" horiz-adv-x="935" d="M82 604q59 98 111.5 138t105.5 40q37 0 90 -16t107.5 -36.5t101.5 -37t74 -16.5q29 0 60.5 11t72.5 73l49 -58q-39 -78 -82 -114.5t-100 -36.5q-29 0 -79 16.5t-104.5 36t-104.5 35.5t-79 16q-16 0 -30.5 -3t-33 -12t-43 -29.5t-57.5 -53.5z" />
<glyph unicode="&#xa1;" horiz-adv-x="409" d="M113 -369l10 953h164l10 -953h-184zM113 758v266h184v-266h-184z" />
<glyph unicode="&#xa2;" horiz-adv-x="1054" d="M102 512q0 115 33 211t94.5 165.5t149.5 109.5t199 44v187h81v-189q84 -4 151 -22.5t142 -50.5l-22 -144q-78 29 -137.5 45.5t-133.5 20.5v-756q74 4 133.5 20.5t137.5 45.5l22 -144q-76 -33 -142.5 -51t-150.5 -22v-187h-81v185q-111 4 -199 43.5t-149.5 109.5 t-94.5 166t-33 213zM297 512q0 -78 18.5 -143.5t54.5 -115.5t88 -80t120 -36v748q-68 -6 -120 -36t-88 -80t-54.5 -115.5t-18.5 -141.5z" />
<glyph unicode="&#xa3;" horiz-adv-x="1259" d="M102 0v164h103v471h-103v143h103v266q0 98 35.5 169t99 115t149.5 64.5t187 20.5q143 0 269 -35t212 -88l-78 -153q-109 57 -207 79.5t-186 22.5q-80 0 -137 -17.5t-92 -46t-51.5 -69.5t-16.5 -86v-242h471v-143h-471v-471h717v-164h-1004z" />
<glyph unicode="&#xa4;" horiz-adv-x="1050" d="M143 928l17 16l162 -184q41 35 93 54.5t111 19.5q57 0 109.5 -19.5t93.5 -54.5l160 184l18 -16l-159 -183q47 -45 74.5 -105t27.5 -130t-26.5 -130.5t-73.5 -103.5l155 -176l-18 -18l-158 178q-41 -35 -93 -53.5t-110 -18.5q-59 0 -111.5 18.5t-92.5 53.5l-156 -178 l-19 18l156 176q-47 45 -72.5 104.5t-25.5 129.5t25.5 129t72.5 104zM229 510q0 -61 23.5 -114.5t64.5 -94.5t94.5 -64.5t114.5 -23.5t115.5 23.5t95.5 64.5t64.5 94.5t23.5 114.5t-23.5 115.5t-64.5 95.5t-95 64.5t-116 23.5q-61 0 -114.5 -23.5t-94.5 -64.5t-64.5 -95.5 t-23.5 -115.5z" />
<glyph unicode="&#xa5;" horiz-adv-x="1331" d="M102 1393h222l344 -703h4l344 703h213l-436 -840h313v-113h-344v-440h-195v440h-342v113h314z" />
<glyph unicode="&#xa6;" horiz-adv-x="348" d="M113 287v819h123v-819h-123zM113 287v819h123v-819h-123z" />
<glyph unicode="&#xa7;" horiz-adv-x="1208" d="M102 -256l33 164q160 -39 271.5 -50.5t197.5 -11.5q76 0 132.5 18.5t93 49.5t54 70t17.5 82q0 63 -33.5 105t-85 69.5t-113 44t-116.5 32.5q-86 23 -164 58t-137 86t-94 119.5t-35 156.5h205q0 -59 33.5 -102t87 -71.5t116 -48t121.5 -34.5q84 -18 161 -50t134 -79 t91 -113.5t34 -156.5q0 -104 -38 -181t-105.5 -127t-159.5 -76t-199 -26q-117 0 -244 16.5t-258 55.5zM123 1352q0 98 38 168.5t103.5 114.5t152.5 64.5t187 20.5q117 0 228.5 -16t242.5 -55l-45 -164q-80 18 -140.5 30.5t-109.5 19.5t-91 9t-85 2q-78 0 -130 -16.5t-85 -44 t-47 -63.5t-14 -76q0 -59 33.5 -100.5t87 -70t116 -47t121.5 -32.5q84 -18 162 -50t136 -81.5t91 -119t31 -165.5h-205q0 63 -33.5 105t-85 70t-113 44t-116.5 33q-86 23 -164 57.5t-137 85.5t-94 120t-35 157z" />
<glyph unicode="&#xa8;" horiz-adv-x="911" d="M123 1167v226h153v-226h-153zM635 1167v226h153v-226h-153z" />
<glyph unicode="&#xa9;" horiz-adv-x="1566" d="M61 696q0 150 56.5 281t155 227t229.5 152.5t280 56.5q150 0 282 -56.5t230.5 -152.5t154.5 -227t56 -281t-56 -280.5t-154.5 -227t-230.5 -152.5t-282 -56t-280.5 56t-229 152.5t-155 227t-56.5 280.5zM147 696q0 -131 50.5 -246.5t136.5 -201.5t201.5 -136.5 t246.5 -50.5t247 50.5t202 136.5t136 201.5t50 246.5t-50 246t-136 200t-202 134t-247 49t-246.5 -49t-201.5 -134t-136.5 -200t-50.5 -246zM446 705q0 170 88.5 261t253.5 91q94 0 157 -25.5t102 -52.5l-41 -86q-55 35 -108.5 49t-100.5 14q-119 0 -174.5 -64.5 t-55.5 -186.5q0 -131 55.5 -202t174.5 -71q47 0 100 13.5t107 48.5l43 -86q-39 -27 -101.5 -51.5t-157.5 -24.5q-166 0 -254 96t-88 277z" />
<glyph unicode="&#xaa;" horiz-adv-x="604" d="M92 1022q0 86 61.5 121t153.5 35h113v51q0 51 -26.5 73.5t-92.5 22.5q-29 0 -66.5 -3t-95.5 -15q-4 20 -7 37.5t-7 37.5q53 10 104.5 15.5t92.5 5.5q94 0 142 -35t48 -135v-352h-92v51q-39 -33 -76 -47.5t-88 -14.5q-78 0 -121 42t-43 110zM184 1030q0 -41 29 -64.5 t78 -23.5q45 0 78.5 14.5t50.5 28.5v135h-109q-72 0 -99.5 -23.5t-27.5 -66.5z" />
<glyph unicode="&#xab;" horiz-adv-x="1361" d="M113 455v112l553 344v-166l-359 -233l359 -233v-166zM696 455v112l553 344v-166l-358 -233l358 -233v-166z" />
<glyph unicode="&#xac;" horiz-adv-x="1208" d="M154 465v153h901v-372h-154v219h-747z" />
<glyph unicode="&#xad;" horiz-adv-x="1024" d="M113 465v153h798v-153h-798z" />
<glyph unicode="&#xae;" horiz-adv-x="1566" d="M61 696q0 150 56.5 281t155 227t229.5 152.5t280 56.5q150 0 282 -56.5t230.5 -152.5t154.5 -227t56 -281t-56 -280.5t-154.5 -227t-230.5 -152.5t-282 -56t-280.5 56t-229 152.5t-155 227t-56.5 280.5zM147 696q0 -131 50.5 -246.5t136.5 -201.5t201.5 -136.5 t246.5 -50.5t247 50.5t202 136.5t136 201.5t50 246.5t-50 246t-136 200t-202 134t-247 49t-246.5 -49t-201.5 -134t-136.5 -200t-50.5 -246zM524 344v705h283q127 0 195.5 -61.5t68.5 -172.5q0 -92 -46 -149.5t-126 -71.5l197 -250h-140l-180 231h-139v-231h-113zM637 678 h166q72 0 112.5 32.5t40.5 104.5q0 66 -39.5 98.5t-109.5 32.5h-170v-268z" />
<glyph unicode="&#xaf;" horiz-adv-x="880" d="M123 1219v112h635v-112h-635z" />
<glyph unicode="&#xb0;" horiz-adv-x="534" d="M82 1206q0 78 53 132.5t131 54.5t132.5 -54.5t54.5 -132.5t-54.5 -131t-132.5 -53t-131 53t-53 131zM154 1206q0 -47 32.5 -79.5t79.5 -32.5q49 0 82 32.5t33 79.5q0 49 -33 82t-82 33q-47 0 -79.5 -33t-32.5 -82z" />
<glyph unicode="&#xb1;" horiz-adv-x="1024" d="M113 82v154h321v245h-321v154h321v311h154v-311h323v-154h-323v-245h323v-154h-798z" />
<glyph unicode="&#xb2;" horiz-adv-x="636" d="M92 1085v93q109 72 176.5 130t104.5 105t49 84t12 66q0 47 -15.5 75.5t-38 43t-47 18.5t-40.5 4q-39 0 -79 -11.5t-93 -37.5l-29 76q53 29 107.5 45t119.5 16q111 0 163.5 -61.5t52.5 -147.5q0 -109 -77 -206t-231 -203v-3h318v-86h-453z" />
<glyph unicode="&#xb3;" horiz-adv-x="657" d="M92 1124l29 74q45 -23 93 -38t105 -15q45 0 74 11t45.5 28.5t22.5 37t6 35.5q0 57 -36 91t-128 34h-86v80h82q82 0 116 40t34 87q0 18 -6.5 38t-19.5 36t-38 27.5t-61 11.5q-53 0 -98.5 -16.5t-86.5 -38.5l-30 75q49 29 106 44.5t117 15.5q96 0 154.5 -47t58.5 -136 q0 -63 -37 -104t-94 -61q74 -16 112.5 -63.5t38.5 -110.5q0 -94 -62.5 -144.5t-180.5 -50.5q-61 0 -121 13.5t-109 45.5z" />
<glyph unicode="&#xb4;" horiz-adv-x="522" d="M123 1147l123 246h153l-174 -246h-102z" />
<glyph unicode="&#xb5;" d="M-164 -416l17 144q35 -4 59.5 -7.5t46.5 -3.5q94 0 124 53.5t30 147.5v1106h184v-678q2 -98 49 -155.5t156 -57.5q43 0 85 12.5t78.5 30t68.5 37.5t54 37v774h185v-1024h-185v143h-4q-63 -59 -134.5 -100t-157.5 -51q-66 -4 -117 14.5t-78 63.5v-152q0 -190 -76 -269 t-231 -79q-37 0 -75 4t-79 10z" />
<glyph unicode="&#xb6;" horiz-adv-x="1146" d="M82 999q0 92 29.5 165t84 124t130 78t168.5 27h571v-72h-168v-1321h-82v1321h-133v-717h-188q-92 0 -168 29t-130.5 81t-84 124.5t-29.5 160.5z" />
<glyph unicode="&#xb7;" horiz-adv-x="491" d="M154 379v266h184v-266h-184z" />
<glyph unicode="&#xb8;" horiz-adv-x="598" d="M123 -395l12 61q25 -6 49.5 -10t55.5 -4q68 0 93 32.5t25 63.5t-26.5 62.5t-100.5 35.5v154h72v-113q29 -2 59.5 -10t55 -25.5t41 -44t16.5 -67.5q0 -74 -53 -117t-148 -43q-72 0 -151 25z" />
<glyph unicode="&#xb9;" horiz-adv-x="616" d="M80 1085v80h205v512q-41 -23 -83 -43t-85 -43l-25 74q59 27 119.5 58.5t101.5 64.5h68v-623h205v-80h-506z" />
<glyph unicode="&#xba;" horiz-adv-x="655" d="M92 1137q0 119 53.5 192.5t182.5 73.5t182 -74t53 -192q0 -121 -53 -194t-182 -73t-182.5 73t-53.5 194zM188 1137q0 -82 30 -136.5t110 -54.5t108.5 54.5t28.5 136.5q0 80 -28.5 134t-108.5 54t-110 -54t-30 -134z" />
<glyph unicode="&#xbb;" horiz-adv-x="1361" d="M113 113v166l358 233l-358 233v166l553 -344v-112zM696 113v166l359 233l-359 233v166l553 -344v-112z" />
<glyph unicode="&#xbc;" horiz-adv-x="1638" d="M82 676v80h205v512q-43 -23 -85 -43.5t-83 -42.5l-27 73q61 27 120.5 59t100.5 64h70v-622h205v-80h-506zM500 0l757 1393h62l-758 -1393h-61zM1040 176v82q86 92 165 203.5t134 234.5h121v-438h96v-82h-96v-176h-96v176h-324zM1141 258h223v311q-49 -90 -103.5 -163.5 t-119.5 -147.5z" />
<glyph unicode="&#xbd;" horiz-adv-x="1638" d="M82 676v80h205v512q-43 -23 -85 -43.5t-83 -42.5l-27 73q61 27 120.5 59t100.5 64h70v-622h205v-80h-506zM459 0l758 1393h61l-758 -1393h-61zM1102 0v92q111 72 177.5 130.5t103 105.5t49 84t12.5 65q0 47 -15.5 76t-38 43t-47 18t-40.5 4q-37 0 -78 -11t-95 -38l-28 76 q53 29 107.5 45.5t119.5 16.5q111 0 164 -61.5t53 -147.5q0 -109 -77.5 -206t-229.5 -204v-2h317v-86h-454z" />
<glyph unicode="&#xbe;" horiz-adv-x="1638" d="M82 715l29 73q45 -23 93 -38t105 -15q45 0 74 11.5t45 29t22.5 36.5t6.5 36q0 57 -36 91t-128 34h-86v80h82q82 0 115.5 40t33.5 87q0 18 -6 37.5t-19.5 36t-38 27.5t-61.5 11q-53 0 -98 -16t-86 -39l-31 76q49 29 106.5 44t117.5 15q96 0 154.5 -47t58.5 -135 q0 -63 -37.5 -104.5t-94.5 -61.5q74 -16 113 -63.5t39 -110.5q0 -94 -62.5 -144.5t-181.5 -50.5q-61 0 -120.5 13.5t-108.5 46.5zM500 0l757 1393h62l-758 -1393h-61zM1040 176v82q86 92 165 203.5t134 234.5h121v-438h96v-82h-96v-176h-96v176h-324zM1141 258h223v311 q-49 -90 -103.5 -163.5t-119.5 -147.5z" />
<glyph unicode="&#xbf;" horiz-adv-x="983" d="M92 -31q0 90 27.5 152.5t70.5 107.5t91.5 79t91.5 66t70.5 68.5t27.5 89.5v62h164v-62q0 -76 -26.5 -127t-65.5 -91t-85 -71.5t-85 -66.5t-65.5 -80t-26.5 -108q0 -72 27.5 -112t66.5 -60.5t82 -25.5t75 -5q51 0 132 14.5t174 48.5l53 -159q-86 -35 -190.5 -56.5 t-208.5 -21.5q-121 0 -199 33.5t-123 86t-61.5 116t-16.5 122.5zM461 758v266h184v-266h-184z" />
<glyph unicode="&#xc0;" horiz-adv-x="1331" d="M72 0l479 1403h240l469 -1403h-218l-114 352h-533l-119 -352h-204zM428 1700h154l123 -246h-103zM436 516h451l-219 643h-4z" />
<glyph unicode="&#xc1;" horiz-adv-x="1331" d="M72 0l479 1403h240l469 -1403h-218l-114 352h-533l-119 -352h-204zM436 516h451l-219 643h-4zM629 1477l123 245h153l-174 -245h-102z" />
<glyph unicode="&#xc2;" horiz-adv-x="1331" d="M72 0l479 1403h240l469 -1403h-218l-114 352h-533l-119 -352h-204zM389 1495l219 246h113l221 -246h-102l-174 164l-174 -164h-103zM436 516h451l-219 643h-4z" />
<glyph unicode="&#xc3;" horiz-adv-x="1331" d="M72 0l479 1403h240l469 -1403h-218l-114 352h-533l-119 -352h-204zM330 1556q59 98 111.5 133t105.5 35q37 0 74.5 -16t72.5 -36.5t66 -37t57 -16.5q29 0 60.5 16.5t72.5 77.5l49 -57q-39 -78 -84 -115t-98 -37q-29 0 -62.5 16.5t-69.5 36t-69.5 36t-62.5 16.5 q-18 0 -33.5 -3t-34 -12.5t-41 -30t-55.5 -53.5zM436 516h451l-219 643h-4z" />
<glyph unicode="&#xc4;" horiz-adv-x="1331" d="M72 0l479 1403h240l469 -1403h-218l-114 352h-533l-119 -352h-204zM332 1505v226h153v-226h-153zM436 516h451l-219 643h-4zM844 1505v226h153v-226h-153z" />
<glyph unicode="&#xc5;" horiz-adv-x="1331" d="M72 0l479 1403h240l469 -1403h-218l-114 352h-533l-119 -352h-204zM436 516h451l-219 643h-4zM508 1618q0 66 45 110t113 44q66 0 110.5 -44.5t44.5 -109.5q0 -68 -45 -111t-110 -43q-68 0 -113 43t-45 111zM571 1618q0 -41 27 -69.5t68 -28.5t67.5 28.5t26.5 69.5 t-26.5 68.5t-67.5 27.5t-68 -27.5t-27 -68.5z" />
<glyph unicode="&#xc6;" horiz-adv-x="1896" d="M72 0l710 1393h992v-174h-697v-410h604v-174h-604v-461h707v-174h-901v496h-359l-258 -496h-194zM592 649h291v568h-4z" />
<glyph unicode="&#xc7;" horiz-adv-x="1269" d="M113 707q0 145 25.5 274t92 225.5t182 151.5t294.5 55q119 0 234.5 -16.5t246.5 -55.5l-45 -163q-80 18 -139.5 30.5t-108.5 19.5t-90 9t-84 2q-121 0 -199 -41t-124 -113.5t-63.5 -170t-17.5 -207.5q0 -119 17.5 -220.5t63.5 -175t124 -115.5t199 -42q43 0 84 2t90 9 t108.5 19.5t139.5 30.5l45 -164q-125 -37 -236.5 -53t-224.5 -18v-93q29 -2 59.5 -10t55 -25.5t41 -44t16.5 -67.5q0 -74 -53 -117t-148 -43q-72 0 -151 25l12 61q25 -6 49.5 -10t57.5 -4q68 0 92 32.5t24 63.5t-26.5 62.5t-100.5 35.5v136q-164 8 -268 67.5t-165.5 157.5 t-85 226.5t-23.5 273.5z" />
<glyph unicode="&#xc8;" horiz-adv-x="1146" d="M133 0v1393h891v-174h-696v-410h604v-174h-604v-461h706v-174h-901zM389 1700h154l123 -246h-103z" />
<glyph unicode="&#xc9;" horiz-adv-x="1146" d="M133 0v1393h891v-174h-696v-410h604v-174h-604v-461h706v-174h-901zM502 1477l123 245h153l-174 -245h-102z" />
<glyph unicode="&#xca;" horiz-adv-x="1146" d="M133 0v1393h891v-174h-696v-410h604v-174h-604v-461h706v-174h-901zM315 1495l220 246h112l221 -246h-102l-174 164l-174 -164h-103z" />
<glyph unicode="&#xcb;" horiz-adv-x="1146" d="M133 0v1393h891v-174h-696v-410h604v-174h-604v-461h706v-174h-901zM252 1505v226h154v-226h-154zM764 1505v226h154v-226h-154z" />
<glyph unicode="&#xcc;" horiz-adv-x="460" d="M10 1700h154l123 -246h-103zM133 0v1393h195v-1393h-195z" />
<glyph unicode="&#xcd;" horiz-adv-x="460" d="M133 0v1393h195v-1393h-195zM178 1477l123 245h154l-174 -245h-103z" />
<glyph unicode="&#xce;" horiz-adv-x="460" d="M-47 1495l219 246h113l221 -246h-103l-174 164l-174 -164h-102zM131 0v1393h195v-1393h-195z" />
<glyph unicode="&#xcf;" horiz-adv-x="460" d="M-102 1505v226h153v-226h-153zM135 0v1393h195v-1393h-195zM410 1505v226h153v-226h-153z" />
<glyph unicode="&#xd0;" horiz-adv-x="1351" d="M31 649v113h123v631h495q172 0 286 -52.5t181.5 -144.5t95 -218t27.5 -271q0 -147 -27.5 -276.5t-95 -224.5t-181.5 -150.5t-286 -55.5h-495v649h-123zM348 174h301q117 0 191.5 41t117.5 113.5t59.5 170t16.5 208.5t-16.5 205t-59.5 162.5t-117.5 106.5t-191.5 38h-301 v-457h246v-113h-246v-475z" />
<glyph unicode="&#xd1;" horiz-adv-x="1331" d="M133 0v1393h195l676 -1035h4v1035h190v-1393h-194l-678 1012h-4v-1012h-189zM330 1556q59 98 111.5 133t105.5 35q37 0 74.5 -16t72.5 -36.5t66 -37t57 -16.5q29 0 60.5 16.5t72.5 77.5l49 -57q-39 -78 -84 -115t-98 -37q-29 0 -62.5 16.5t-69.5 36t-69.5 36t-62.5 16.5 q-18 0 -33.5 -3t-34 -12.5t-41 -30t-55.5 -53.5z" />
<glyph unicode="&#xd2;" horiz-adv-x="1413" d="M113 707q0 145 25.5 274t92 225.5t182 151.5t294.5 55q178 0 292.5 -55t182 -151.5t93 -225.5t25.5 -274q0 -147 -25.5 -279.5t-93 -232t-182 -157.5t-292.5 -58t-294 58t-182.5 157.5t-92 231.5t-25.5 280zM317 707q0 -111 14.5 -213.5t55.5 -180t118 -124t202 -46.5 t200.5 46.5t117.5 124t56.5 180t14.5 213.5t-14.5 210t-56.5 172.5t-117.5 116.5t-200.5 43t-202 -43t-118 -116.5t-55.5 -173t-14.5 -209.5zM498 1700h153l123 -246h-102z" />
<glyph unicode="&#xd3;" horiz-adv-x="1413" d="M113 707q0 145 25.5 274t92 225.5t182 151.5t294.5 55q178 0 292.5 -55t182 -151.5t93 -225.5t25.5 -274q0 -147 -25.5 -279.5t-93 -232t-182 -157.5t-292.5 -58t-294 58t-182.5 157.5t-92 231.5t-25.5 280zM317 707q0 -111 14.5 -213.5t55.5 -180t118 -124t202 -46.5 t200.5 46.5t117.5 124t56.5 180t14.5 213.5t-14.5 210t-56.5 172.5t-117.5 116.5t-200.5 43t-202 -43t-118 -116.5t-55.5 -173t-14.5 -209.5zM649 1477l123 245h154l-174 -245h-103z" />
<glyph unicode="&#xd4;" horiz-adv-x="1413" d="M113 707q0 145 25.5 274t92 225.5t182 151.5t294.5 55q178 0 292.5 -55t182 -151.5t93 -225.5t25.5 -274q0 -147 -25.5 -279.5t-93 -232t-182 -157.5t-292.5 -58t-294 58t-182.5 157.5t-92 231.5t-25.5 280zM317 707q0 -111 14.5 -213.5t55.5 -180t118 -124t202 -46.5 t200.5 46.5t117.5 124t56.5 180t14.5 213.5t-14.5 210t-56.5 172.5t-117.5 116.5t-200.5 43t-202 -43t-118 -116.5t-55.5 -173t-14.5 -209.5zM430 1495l219 246h113l221 -246h-102l-174 164l-175 -164h-102z" />
<glyph unicode="&#xd5;" horiz-adv-x="1413" d="M113 707q0 145 25.5 274t92 225.5t182 151.5t294.5 55q178 0 292.5 -55t182 -151.5t93 -225.5t25.5 -274q0 -147 -25.5 -279.5t-93 -232t-182 -157.5t-292.5 -58t-294 58t-182.5 157.5t-92 231.5t-25.5 280zM317 707q0 -111 14.5 -213.5t55.5 -180t118 -124t202 -46.5 t200.5 46.5t117.5 124t56.5 180t14.5 213.5t-14.5 210t-56.5 172.5t-117.5 116.5t-200.5 43t-202 -43t-118 -116.5t-55.5 -173t-14.5 -209.5zM371 1556q59 98 111.5 133t105.5 35q37 0 74.5 -16t72.5 -36.5t65.5 -37t57.5 -16.5q29 0 60.5 16.5t72.5 77.5l49 -57 q-39 -78 -84 -115t-98 -37q-29 0 -62.5 16.5t-69.5 36t-69.5 36t-62.5 16.5q-18 0 -33.5 -3t-34 -12.5t-41 -30t-55.5 -53.5z" />
<glyph unicode="&#xd6;" horiz-adv-x="1413" d="M113 707q0 145 25.5 274t92 225.5t182 151.5t294.5 55q178 0 292.5 -55t182 -151.5t93 -225.5t25.5 -274q0 -147 -25.5 -279.5t-93 -232t-182 -157.5t-292.5 -58t-294 58t-182.5 157.5t-92 231.5t-25.5 280zM317 707q0 -111 14.5 -213.5t55.5 -180t118 -124t202 -46.5 t200.5 46.5t117.5 124t56.5 180t14.5 213.5t-14.5 210t-56.5 172.5t-117.5 116.5t-200.5 43t-202 -43t-118 -116.5t-55.5 -173t-14.5 -209.5zM373 1505v226h153v-226h-153zM885 1505v226h153v-226h-153z" />
<glyph unicode="&#xd7;" horiz-adv-x="1013" d="M113 256l284 287l-284 284l108 109l285 -285l287 285l108 -109l-287 -284l287 -287l-108 -109l-287 287l-285 -287z" />
<glyph unicode="&#xd8;" horiz-adv-x="1413" d="M82 -16l158 198q-72 100 -99.5 235.5t-27.5 289.5q0 145 25.5 274t92 225.5t182 151.5t294.5 55q139 0 237 -36t164 -99l162 203l59 -47l-164 -207q78 -98 106.5 -232.5t28.5 -287.5q0 -147 -25.5 -279.5t-93 -232t-182 -157.5t-292.5 -58q-145 0 -246 38.5t-168 108.5 l-152 -190zM317 707q0 -96 11.5 -187.5t46.5 -165.5l620 781q-45 53 -114.5 83.5t-173.5 30.5q-125 0 -202 -43t-118 -116.5t-55.5 -173t-14.5 -209.5zM410 274q45 -61 115.5 -96t181.5 -35q125 0 200.5 46.5t117.5 124t56.5 180t14.5 213.5q0 98 -12.5 188t-53.5 162z" />
<glyph unicode="&#xd9;" horiz-adv-x="1310" d="M133 492v901h195v-901q0 -57 9 -119t43 -113t100 -84t179 -33q106 0 171 33t99 84t44 112.5t10 119.5v901h195v-901q0 -268 -137.5 -390t-385.5 -122q-250 0 -386 121.5t-136 390.5zM436 1700h154l123 -246h-103z" />
<glyph unicode="&#xda;" horiz-adv-x="1310" d="M133 492v901h195v-901q0 -57 9 -119t43 -113t100 -84t179 -33q106 0 171 33t99 84t44 112.5t10 119.5v901h195v-901q0 -268 -137.5 -390t-385.5 -122q-250 0 -386 121.5t-136 390.5zM600 1477l123 245h154l-175 -245h-102z" />
<glyph unicode="&#xdb;" horiz-adv-x="1310" d="M133 492v901h195v-901q0 -57 9 -119t43 -113t100 -84t179 -33q106 0 171 33t99 84t44 112.5t10 119.5v901h195v-901q0 -268 -137.5 -390t-385.5 -122q-250 0 -386 121.5t-136 390.5zM379 1495l219 246h113l221 -246h-103l-174 164l-174 -164h-102z" />
<glyph unicode="&#xdc;" horiz-adv-x="1310" d="M133 492v901h195v-901q0 -57 9 -119t43 -113t100 -84t179 -33q106 0 171 33t99 84t44 112.5t10 119.5v901h195v-901q0 -268 -137.5 -390t-385.5 -122q-250 0 -386 121.5t-136 390.5zM322 1505v226h153v-226h-153zM834 1505v226h153v-226h-153z" />
<glyph unicode="&#xdd;" horiz-adv-x="1269" d="M72 1393h221l344 -703h4l344 703h213l-467 -901v-492h-194v492zM602 1477l123 245h154l-174 -245h-103z" />
<glyph unicode="&#xde;" horiz-adv-x="1228" d="M133 0v1393h195v-267h368q104 0 185.5 -30.5t138.5 -87t87 -133t30 -168.5q0 -193 -116 -306.5t-325 -113.5h-368v-287h-195zM328 461h348q117 0 188.5 58.5t71.5 187.5q0 119 -71.5 182t-188.5 63h-348v-491z" />
<glyph unicode="&#xdf;" horiz-adv-x="1320" d="M41 891v121l154 12q0 121 38.5 201t103 126t147.5 64.5t171 18.5q190 0 305 -76t115 -232q0 -90 -40 -148t-88 -98t-88 -72t-40 -71t31 -58.5t65 -31.5q178 -61 251 -145t73 -193q0 -92 -36 -155.5t-93 -101.5t-132 -55t-151 -17q-78 0 -141 11t-123 29l23 144 q66 -23 124 -32t109 -9q76 0 120 21.5t67.5 51t30.5 61.5t7 50q0 55 -30.5 95t-71.5 67t-83 43t-66 29q-82 39 -115 75.5t-33 102.5q0 53 34 92t75 77t74.5 86t33.5 120q0 57 -21.5 95t-55 59.5t-72.5 29.5t-74 8q-80 0 -131 -25.5t-80 -69.5t-39 -100.5t-10 -117.5v-973 h-184v891h-154z" />
<glyph unicode="&#xe0;" horiz-adv-x="1034" d="M82 281q0 86 32.5 145t91 97t137.5 54.5t169 16.5h225v102q0 102 -54 148.5t-181 46.5q-59 0 -135 -8.5t-191 -30.5l-29 149q104 20 207 31.5t189 11.5q92 0 162.5 -15t118.5 -54t73 -103.5t25 -164.5v-707h-185v102h-4q-74 -66 -148.5 -94t-174.5 -28q-154 0 -241 82.5 t-87 218.5zM266 297q0 -82 57.5 -128t157.5 -46q88 0 154.5 28.5t101.5 57.5v272h-215q-143 0 -199.5 -48t-56.5 -136zM328 1393h153l123 -246h-102z" />
<glyph unicode="&#xe1;" horiz-adv-x="1034" d="M82 281q0 86 32.5 145t91 97t137.5 54.5t169 16.5h225v102q0 102 -54 148.5t-181 46.5q-59 0 -135 -8.5t-191 -30.5l-29 149q104 20 207 31.5t189 11.5q92 0 162.5 -15t118.5 -54t73 -103.5t25 -164.5v-707h-185v102h-4q-74 -66 -148.5 -94t-174.5 -28q-154 0 -241 82.5 t-87 218.5zM266 297q0 -82 57.5 -128t157.5 -46q88 0 154.5 28.5t101.5 57.5v272h-215q-143 0 -199.5 -48t-56.5 -136zM473 1147l123 246h154l-175 -246h-102z" />
<glyph unicode="&#xe2;" horiz-adv-x="1034" d="M82 281q0 86 32.5 145t91 97t137.5 54.5t169 16.5h225v102q0 102 -54 148.5t-181 46.5q-59 0 -135 -8.5t-191 -30.5l-29 149q104 20 207 31.5t189 11.5q92 0 162.5 -15t118.5 -54t73 -103.5t25 -164.5v-707h-185v102h-4q-74 -66 -148.5 -94t-174.5 -28q-154 0 -241 82.5 t-87 218.5zM260 1147l219 246h113l221 -246h-102l-174 164l-175 -164h-102zM266 297q0 -82 57.5 -128t157.5 -46q88 0 154.5 28.5t101.5 57.5v272h-215q-143 0 -199.5 -48t-56.5 -136z" />
<glyph unicode="&#xe3;" horiz-adv-x="1034" d="M82 281q0 86 32.5 145t91 97t137.5 54.5t169 16.5h225v102q0 102 -54 148.5t-181 46.5q-59 0 -135 -8.5t-191 -30.5l-29 149q104 20 207 31.5t189 11.5q92 0 162.5 -15t118.5 -54t73 -103.5t25 -164.5v-707h-185v102h-4q-74 -66 -148.5 -94t-174.5 -28q-154 0 -241 82.5 t-87 218.5zM217 1208q59 98 111.5 133t105.5 35q37 0 75 -16.5t72.5 -36.5t65.5 -36.5t58 -16.5q29 0 60.5 16.5t72.5 77.5l49 -57q-39 -78 -84 -115t-98 -37q-29 0 -63 16.5t-69.5 36t-69.5 36t-63 16.5q-18 0 -33.5 -3.5t-34 -12.5t-41 -29.5t-55.5 -53.5zM266 297 q0 -82 57.5 -128t157.5 -46q88 0 154.5 28.5t101.5 57.5v272h-215q-143 0 -199.5 -48t-56.5 -136z" />
<glyph unicode="&#xe4;" horiz-adv-x="1034" d="M82 281q0 86 32.5 145t91 97t137.5 54.5t169 16.5h225v102q0 102 -54 148.5t-181 46.5q-59 0 -135 -8.5t-191 -30.5l-29 149q104 20 207 31.5t189 11.5q92 0 162.5 -15t118.5 -54t73 -103.5t25 -164.5v-707h-185v102h-4q-74 -66 -148.5 -94t-174.5 -28q-154 0 -241 82.5 t-87 218.5zM203 1167v226h153v-226h-153zM266 297q0 -82 57.5 -128t157.5 -46q88 0 154.5 28.5t101.5 57.5v272h-215q-143 0 -199.5 -48t-56.5 -136zM715 1167v226h153v-226h-153z" />
<glyph unicode="&#xe5;" horiz-adv-x="1034" d="M82 281q0 86 32.5 145t91 97t137.5 54.5t169 16.5h225v102q0 102 -54 148.5t-181 46.5q-59 0 -135 -8.5t-191 -30.5l-29 149q104 20 207 31.5t189 11.5q92 0 162.5 -15t118.5 -54t73 -103.5t25 -164.5v-707h-185v102h-4q-74 -66 -148.5 -94t-174.5 -28q-154 0 -241 82.5 t-87 218.5zM266 297q0 -82 57.5 -128t157.5 -46q88 0 154.5 28.5t101.5 57.5v272h-215q-143 0 -199.5 -48t-56.5 -136zM379 1270q0 66 45 109.5t113 43.5q66 0 110.5 -44t44.5 -109q0 -68 -45 -111t-110 -43q-68 0 -113 43t-45 111zM442 1270q0 -41 27 -70t68 -29t67.5 29 t26.5 70t-26.5 68.5t-67.5 27.5t-68 -27.5t-27 -68.5z" />
<glyph unicode="&#xe6;" horiz-adv-x="1730" d="M82 281q0 102 43 164.5t107.5 95t140.5 43t139 10.5h225v102q0 102 -54 148.5t-181 46.5q-59 0 -135 -8.5t-191 -30.5q-8 37 -14 75t-15 74q92 18 183.5 28.5t169.5 12.5q43 2 79.5 -4t67.5 -16q80 -18 134.5 -60t80.5 -118q47 92 138.5 146t238.5 54q162 0 250 -55 t126 -138t38 -182.5t-17 -187.5h-700q4 -158 82 -253t256 -95q76 0 152.5 6t166.5 35l25 -149q-98 -27 -183 -36t-186 -9q-166 0 -269 49t-163 141q-51 -57 -103 -94t-103.5 -58.5t-101.5 -29.5t-99 -8q-145 0 -236.5 78.5t-91.5 222.5zM266 297q0 -82 57.5 -128t157.5 -46 q88 0 163 32.5t126 82.5q-18 51 -25.5 111.5t-7.5 131.5h-215q-143 0 -199.5 -48t-56.5 -136zM936 598h520q10 53 7 107.5t-27.5 97.5t-74.5 70.5t-132 27.5q-78 0 -131.5 -23.5t-87 -63.5t-51 -96t-23.5 -120z" />
<glyph unicode="&#xe7;" horiz-adv-x="983" d="M92 512q0 119 25.5 217t85 168t155 108.5t236.5 38.5q96 0 176 -12t172 -35l-35 -147q-61 14 -107 23.5t-83 12.5t-66.5 4t-56.5 1q-80 0 -138.5 -27.5t-96 -78t-55 -120t-17.5 -153.5t17.5 -153.5t55 -120t96 -78t138.5 -27.5q27 0 56.5 1t66.5 4t83 11.5t107 24.5 l35 -149q-92 -23 -170 -34t-170 -11v-93q29 -2 58.5 -10t54 -25.5t41 -44t16.5 -67.5q0 -74 -52 -117t-147 -43q-74 0 -153 25l12 61q25 -6 49.5 -10t59.5 -4q68 0 92 32.5t24 63.5t-27.5 62.5t-99.5 35.5v136q-123 8 -205.5 49t-135 110.5t-75 163.5t-22.5 207z" />
<glyph unicode="&#xe8;" d="M92 512q0 119 26.5 217t86 168t155 108.5t234.5 38.5q117 0 194.5 -30.5t123.5 -81.5t66.5 -114.5t25.5 -129.5q4 -49 -0.5 -101t-12.5 -106h-700q2 -78 21.5 -141.5t59.5 -109.5t103.5 -71.5t153.5 -25.5q76 0 152.5 6t166.5 35l25 -149q-98 -27 -183 -36t-186 -9 q-141 0 -239.5 38.5t-159 108.5t-87 168t-26.5 217zM291 598h520q4 29 7 55.5t-1 53.5q-4 39 -17.5 74.5t-41 62t-70.5 42t-104 15.5q-78 0 -131.5 -23.5t-87 -63.5t-51 -96t-23.5 -120zM369 1393h153l123 -246h-102z" />
<glyph unicode="&#xe9;" d="M92 512q0 119 26.5 217t86 168t155 108.5t234.5 38.5q117 0 194.5 -30.5t123.5 -81.5t66.5 -114.5t25.5 -129.5q4 -49 -0.5 -101t-12.5 -106h-700q2 -78 21.5 -141.5t59.5 -109.5t103.5 -71.5t153.5 -25.5q76 0 152.5 6t166.5 35l25 -149q-98 -27 -183 -36t-186 -9 q-141 0 -239.5 38.5t-159 108.5t-87 168t-26.5 217zM291 598h520q4 29 7 55.5t-1 53.5q-4 39 -17.5 74.5t-41 62t-70.5 42t-104 15.5q-78 0 -131.5 -23.5t-87 -63.5t-51 -96t-23.5 -120zM545 1147l123 246h153l-174 -246h-102z" />
<glyph unicode="&#xea;" d="M92 512q0 119 26.5 217t86 168t155 108.5t234.5 38.5q117 0 194.5 -30.5t123.5 -81.5t66.5 -114.5t25.5 -129.5q4 -49 -0.5 -101t-12.5 -106h-700q2 -78 21.5 -141.5t59.5 -109.5t103.5 -71.5t153.5 -25.5q76 0 152.5 6t166.5 35l25 -149q-98 -27 -183 -36t-186 -9 q-141 0 -239.5 38.5t-159 108.5t-87 168t-26.5 217zM266 1147l219 246h113l221 -246h-102l-174 164l-174 -164h-103zM291 598h520q4 29 7 55.5t-1 53.5q-4 39 -17.5 74.5t-41 62t-70.5 42t-104 15.5q-78 0 -131.5 -23.5t-87 -63.5t-51 -96t-23.5 -120z" />
<glyph unicode="&#xeb;" d="M92 512q0 119 26.5 217t86 168t155 108.5t234.5 38.5q117 0 194.5 -30.5t123.5 -81.5t66.5 -114.5t25.5 -129.5q4 -49 -0.5 -101t-12.5 -106h-700q2 -78 21.5 -141.5t59.5 -109.5t103.5 -71.5t153.5 -25.5q76 0 152.5 6t166.5 35l25 -149q-98 -27 -183 -36t-186 -9 q-141 0 -239.5 38.5t-159 108.5t-87 168t-26.5 217zM209 1167v226h153v-226h-153zM291 598h520q4 29 7 55.5t-1 53.5q-4 39 -17.5 74.5t-41 62t-70.5 42t-104 15.5q-78 0 -131.5 -23.5t-87 -63.5t-51 -96t-23.5 -120zM721 1167v226h153v-226h-153z" />
<glyph unicode="&#xec;" horiz-adv-x="409" d="M-14 1393h153l123 -246h-102zM113 0v1024h184v-1024h-184z" />
<glyph unicode="&#xed;" horiz-adv-x="409" d="M113 0v1024h184v-1024h-184zM158 1147l123 246h153l-174 -246h-102z" />
<glyph unicode="&#xee;" horiz-adv-x="409" d="M-72 1147l219 246h113l221 -246h-102l-174 164l-174 -164h-103zM113 0v1024h184v-1024h-184z" />
<glyph unicode="&#xef;" horiz-adv-x="409" d="M-129 1167v226h154v-226h-154zM113 0v1024h184v-1024h-184zM383 1167v226h154v-226h-154z" />
<glyph unicode="&#xf0;" horiz-adv-x="1126" d="M92 451q0 231 112.5 356t311.5 125q100 0 185 -50.5t145 -129.5l4 2q-2 39 -8 90t-19.5 104t-37 104.5t-60.5 92.5l-139 -141l-66 67l123 123q-41 29 -92 47.5t-115 18.5q-66 0 -130 -11.5t-148 -40.5l-23 142q39 14 76 26.5t74 20.5t77.5 12t90.5 4q86 0 166.5 -22.5 t148.5 -71.5l154 154l65 -66l-143 -143q88 -92 139 -250t51 -400q0 -123 -23.5 -236.5t-80 -202.5t-150.5 -142t-233 -53q-98 0 -181 31.5t-144.5 93t-95.5 148.5t-34 198zM287 451q0 -78 21.5 -137.5t58 -99.5t86 -60.5t104.5 -20.5q92 0 148.5 41t86 106.5t38 150.5 t4.5 175q-49 70 -117 117t-152 47q-86 0 -140 -30.5t-85 -77t-42 -103.5t-11 -108z" />
<glyph unicode="&#xf1;" d="M113 0v1024h184v-143h4q74 72 165 117.5t200 45.5q154 0 230.5 -88t76.5 -249v-707h-185v666q0 100 -45 162.5t-159 62.5q-45 0 -87 -12.5t-79 -30t-68 -37.5t-53 -39v-772h-184zM207 1208q59 98 111.5 133t105.5 35q37 0 75 -16.5t72.5 -36.5t65.5 -36.5t57 -16.5 q29 0 60.5 16.5t72.5 77.5l50 -57q-39 -78 -84 -115t-99 -37q-29 0 -62.5 16.5t-69.5 36t-69.5 36t-62.5 16.5q-18 0 -33.5 -3.5t-34 -12.5t-41 -29.5t-55.5 -53.5z" />
<glyph unicode="&#xf2;" horiz-adv-x="1126" d="M92 512q0 119 25.5 217t81 168t145.5 108.5t219 38.5t218 -38.5t145.5 -108.5t82 -168t25.5 -217t-25.5 -217t-82 -168t-145.5 -108.5t-218 -38.5t-219 38.5t-145.5 108.5t-81 168t-25.5 217zM287 512q0 -80 13 -149.5t45 -121t85 -80t133 -28.5t133.5 28.5t85 80t45 121 t13.5 149.5t-13.5 149.5t-45 121t-85 80t-133.5 28.5t-133 -28.5t-85 -80t-45 -121t-13 -149.5zM356 1393h154l123 -246h-103z" />
<glyph unicode="&#xf3;" horiz-adv-x="1126" d="M92 512q0 119 25.5 217t81 168t145.5 108.5t219 38.5t218 -38.5t145.5 -108.5t82 -168t25.5 -217t-25.5 -217t-82 -168t-145.5 -108.5t-218 -38.5t-219 38.5t-145.5 108.5t-81 168t-25.5 217zM287 512q0 -80 13 -149.5t45 -121t85 -80t133 -28.5t133.5 28.5t85 80t45 121 t13.5 149.5t-13.5 149.5t-45 121t-85 80t-133.5 28.5t-133 -28.5t-85 -80t-45 -121t-13 -149.5zM498 1147l123 246h153l-174 -246h-102z" />
<glyph unicode="&#xf4;" horiz-adv-x="1126" d="M92 512q0 119 25.5 217t81 168t145.5 108.5t219 38.5t218 -38.5t145.5 -108.5t82 -168t25.5 -217t-25.5 -217t-82 -168t-145.5 -108.5t-218 -38.5t-219 38.5t-145.5 108.5t-81 168t-25.5 217zM287 512q0 -80 13 -149.5t45 -121t85 -80t133 -28.5t133.5 28.5t85 80t45 121 t13.5 149.5t-13.5 149.5t-45 121t-85 80t-133.5 28.5t-133 -28.5t-85 -80t-45 -121t-13 -149.5zM287 1147l219 246h112l222 -246h-103l-174 164l-174 -164h-102z" />
<glyph unicode="&#xf5;" horiz-adv-x="1126" d="M92 512q0 119 25.5 217t81 168t145.5 108.5t219 38.5t218 -38.5t145.5 -108.5t82 -168t25.5 -217t-25.5 -217t-82 -168t-145.5 -108.5t-218 -38.5t-219 38.5t-145.5 108.5t-81 168t-25.5 217zM231 1208q59 98 111.5 133t106.5 35q37 0 74.5 -16.5t72.5 -36.5t65.5 -36.5 t57.5 -16.5q29 0 60.5 16.5t72.5 77.5l49 -57q-39 -78 -84 -115t-98 -37q-29 0 -62.5 16.5t-69.5 36t-69.5 36t-62.5 16.5q-18 0 -33.5 -3.5t-34 -12.5t-41 -29.5t-55.5 -53.5zM287 512q0 -80 13 -149.5t45 -121t85 -80t133 -28.5t133.5 28.5t85 80t45 121t13.5 149.5 t-13.5 149.5t-45 121t-85 80t-133.5 28.5t-133 -28.5t-85 -80t-45 -121t-13 -149.5z" />
<glyph unicode="&#xf6;" horiz-adv-x="1126" d="M92 512q0 119 25.5 217t81 168t145.5 108.5t219 38.5t218 -38.5t145.5 -108.5t82 -168t25.5 -217t-25.5 -217t-82 -168t-145.5 -108.5t-218 -38.5t-219 38.5t-145.5 108.5t-81 168t-25.5 217zM225 1167v226h154v-226h-154zM287 512q0 -80 13 -149.5t45 -121t85 -80 t133 -28.5t133.5 28.5t85 80t45 121t13.5 149.5t-13.5 149.5t-45 121t-85 80t-133.5 28.5t-133 -28.5t-85 -80t-45 -121t-13 -149.5zM737 1167v226h154v-226h-154z" />
<glyph unicode="&#xf7;" horiz-adv-x="1024" d="M113 465v153h798v-153h-798zM430 92v246h164v-246h-164zM430 748v245h164v-245h-164z" />
<glyph unicode="&#xf8;" horiz-adv-x="1126" d="M61 -16l129 151q-53 72 -75.5 166t-22.5 211q0 119 25.5 217t81 168t145.5 108.5t219 38.5q104 0 182 -27.5t132 -78.5l127 149l61 -47l-131 -153q53 -70 76.5 -165t23.5 -210q0 -119 -25.5 -217t-82 -168t-145.5 -108.5t-218 -38.5q-104 0 -182 27.5t-133 76.5 l-127 -147zM287 512q0 -59 9 -114.5t32 -100.5l434 508q-33 41 -81 63.5t-118 22.5q-80 0 -133 -28.5t-85 -80t-45 -121t-13 -149.5zM362 217q33 -41 81 -62.5t120 -21.5q80 0 133.5 28.5t85 80t45 121t13.5 149.5q0 59 -10.5 114.5t-32.5 98.5z" />
<glyph unicode="&#xf9;" d="M113 317v707h184v-666q0 -100 46 -162.5t159 -62.5q43 0 85 12.5t78.5 30t68.5 37.5t54 37v774h185v-1024h-185v143h-4q-74 -74 -165 -118.5t-199 -44.5q-154 0 -230.5 88t-76.5 249zM305 1393h154l123 -246h-103z" />
<glyph unicode="&#xfa;" d="M113 317v707h184v-666q0 -100 46 -162.5t159 -62.5q43 0 85 12.5t78.5 30t68.5 37.5t54 37v774h185v-1024h-185v143h-4q-74 -74 -165 -118.5t-199 -44.5q-154 0 -230.5 88t-76.5 249zM477 1147l123 246h154l-174 -246h-103z" />
<glyph unicode="&#xfb;" d="M113 317v707h184v-666q0 -100 46 -162.5t159 -62.5q43 0 85 12.5t78.5 30t68.5 37.5t54 37v774h185v-1024h-185v143h-4q-74 -74 -165 -118.5t-199 -44.5q-154 0 -230.5 88t-76.5 249zM266 1147l219 246h113l221 -246h-102l-174 164l-174 -164h-103z" />
<glyph unicode="&#xfc;" d="M113 317v707h184v-666q0 -100 46 -162.5t159 -62.5q43 0 85 12.5t78.5 30t68.5 37.5t54 37v774h185v-1024h-185v143h-4q-74 -74 -165 -118.5t-199 -44.5q-154 0 -230.5 88t-76.5 249zM209 1167v226h153v-226h-153zM721 1167v226h153v-226h-153z" />
<glyph unicode="&#xfd;" horiz-adv-x="1146" d="M82 1024h207l297 -838h4l278 838h197l-385 -1085q-35 -100 -76 -171t-91 -115t-110.5 -63.5t-136.5 -19.5q-37 0 -79 4t-74 10l16 154q57 -10 96 -10q51 0 91 22.5t71 58t53.5 80.5t38.5 91zM537 1147l122 246h154l-174 -246h-102z" />
<glyph unicode="&#xfe;" d="M113 -410v1844h184v-512h4q53 53 137 87.5t176 34.5q106 0 179 -40.5t118 -113.5t63.5 -170t18.5 -208t-20.5 -208t-66.5 -170t-120.5 -113.5t-181.5 -40.5q-88 0 -169 31.5t-134 84.5h-4v-506h-184zM297 219q31 -25 95.5 -55.5t150.5 -30.5q74 0 124 31t78.5 82 t41 119.5t12.5 146.5q0 76 -12.5 145.5t-41 120.5t-79 82t-123.5 31q-86 0 -150.5 -31t-95.5 -57v-584z" />
<glyph unicode="&#xff;" horiz-adv-x="1146" d="M82 1024h207l297 -838h4l278 838h197l-385 -1085q-35 -100 -76 -171t-91 -115t-110.5 -63.5t-136.5 -19.5q-37 0 -79 4t-74 10l16 154q57 -10 96 -10q51 0 91 22.5t71 58t53.5 80.5t38.5 91zM240 1167v226h153v-226h-153zM752 1167v226h153v-226h-153z" />
<glyph unicode="&#x152;" horiz-adv-x="2103" d="M113 707q0 145 25.5 274t92 225.5t182 151.5t294.5 55q82 0 145 -18.5t109.5 -51t78 -78.5t54.5 -100h2v228h884v-174h-696v-410h604v-174h-604v-461h707v-174h-895v233h-2q-27 -90 -79 -141t-110.5 -75.5t-113 -30.5t-84.5 -6q-188 0 -304 62t-180.5 164.5t-87 233.5 t-22.5 267zM317 707q0 -111 14.5 -213.5t55.5 -180t118 -124t202 -46.5t200.5 46.5t117.5 125t56.5 183t14.5 221.5q0 111 -15.5 207t-57.5 167.5t-117.5 113.5t-198.5 42q-125 0 -202 -43t-118 -116.5t-55.5 -173t-14.5 -209.5z" />
<glyph unicode="&#x153;" horiz-adv-x="1832" d="M92 512q0 119 25.5 217t81 168t145.5 108.5t219 38.5q152 0 242 -65.5t133 -173.5q47 111 143.5 175t259.5 64q127 0 208 -34.5t127 -91t63.5 -127t17.5 -140.5q0 -47 -6 -91t-12 -79h-699q2 -78 20.5 -141.5t59.5 -109.5t104.5 -71.5t153.5 -25.5q74 0 151 6t169 35 l22 -149q-96 -27 -182 -36t-186 -9q-170 0 -268.5 64.5t-145.5 172.5q-43 -109 -133 -173t-242 -64q-129 0 -219 38.5t-145.5 108.5t-81 168t-25.5 217zM287 512q0 -80 13 -149.5t45 -121t85 -80t133 -28.5q78 0 131.5 27.5t85 79t46 120t14.5 152.5q0 80 -13.5 149.5 t-45 121t-85 80t-133.5 28.5t-133 -28.5t-85 -80t-45 -121t-13 -149.5zM1040 598h521q8 39 8 86q0 43 -12.5 82t-40 68.5t-73.5 48t-112 18.5q-78 0 -131 -23.5t-87 -63.5t-51.5 -96t-21.5 -120z" />
<glyph unicode="&#x178;" horiz-adv-x="1269" d="M72 1393h221l344 -703h4l344 703h213l-467 -901v-492h-194v492zM301 1505v226h154v-226h-154zM813 1505v226h154v-226h-154z" />
<glyph unicode="&#x2c6;" horiz-adv-x="798" d="M123 1147l219 246h113l221 -246h-103l-174 164l-174 -164h-102z" />
<glyph unicode="&#x2dc;" horiz-adv-x="915" d="M123 1208q59 98 111.5 133t105.5 35q37 0 75 -16.5t72.5 -36.5t65.5 -36.5t57 -16.5q29 0 60.5 16.5t72.5 77.5l50 -57q-39 -78 -84 -115t-99 -37q-29 0 -62.5 16.5t-69.5 36t-69.5 36t-62.5 16.5q-18 0 -33.5 -3.5t-34 -12.5t-41 -29.5t-55.5 -53.5z" />
<glyph unicode="&#x2000;" horiz-adv-x="896" />
<glyph unicode="&#x2001;" horiz-adv-x="1792" />
<glyph unicode="&#x2002;" horiz-adv-x="896" />
<glyph unicode="&#x2003;" horiz-adv-x="1792" />
<glyph unicode="&#x2004;" horiz-adv-x="597" />
<glyph unicode="&#x2005;" horiz-adv-x="448" />
<glyph unicode="&#x2006;" horiz-adv-x="298" />
<glyph unicode="&#x2007;" horiz-adv-x="298" />
<glyph unicode="&#x2008;" horiz-adv-x="224" />
<glyph unicode="&#x2009;" horiz-adv-x="358" />
<glyph unicode="&#x200a;" horiz-adv-x="99" />
<glyph unicode="&#x2010;" horiz-adv-x="1024" d="M113 465v153h798v-153h-798z" />
<glyph unicode="&#x2011;" horiz-adv-x="1024" d="M113 465v153h798v-153h-798z" />
<glyph unicode="&#x2012;" horiz-adv-x="1024" d="M113 465v153h798v-153h-798z" />
<glyph unicode="&#x2013;" horiz-adv-x="1423" d="M113 465v153h1198v-153h-1198z" />
<glyph unicode="&#x2014;" horiz-adv-x="1556" d="M113 465v153h1331v-153h-1331z" />
<glyph unicode="&#x2018;" horiz-adv-x="409" d="M113 860v266l92 267h61l-41 -267h72v-266h-184z" />
<glyph unicode="&#x2019;" horiz-adv-x="409" d="M113 1126v267h184v-267l-92 -266h-62l41 266h-71z" />
<glyph unicode="&#x201a;" horiz-adv-x="409" d="M113 -61v266h184v-266l-92 -267h-62l41 267h-71z" />
<glyph unicode="&#x201c;" horiz-adv-x="860" d="M113 860v266l92 267h61l-41 -267h72v-266h-184zM563 860v266q23 66 45.5 133.5t46.5 133.5h62l-41 -267h72v-266h-185z" />
<glyph unicode="&#x201d;" horiz-adv-x="860" d="M113 1126v267h184v-267l-92 -266h-62l41 266h-71zM563 1126v267h185v-267l-93 -266h-61l41 266h-72z" />
<glyph unicode="&#x201e;" horiz-adv-x="860" d="M113 -61v266h184v-266l-92 -267h-62l41 267h-71zM563 -61v266h185v-266l-93 -267h-61l41 267h-72z" />
<glyph unicode="&#x2022;" horiz-adv-x="491" d="M154 379v266h184v-266h-184z" />
<glyph unicode="&#x2026;" horiz-adv-x="1228" d="M113 0v266h184v-266h-184zM522 0v266h185v-266h-185zM932 0v266h184v-266h-184z" />
<glyph unicode="&#x202f;" horiz-adv-x="358" />
<glyph unicode="&#x2039;" horiz-adv-x="778" d="M113 455v112l553 344v-166l-359 -233l359 -233v-166z" />
<glyph unicode="&#x203a;" horiz-adv-x="778" d="M113 113v166l358 233l-358 233v166l553 -344v-112z" />
<glyph unicode="&#x205f;" horiz-adv-x="448" />
<glyph unicode="&#x20ac;" horiz-adv-x="1433" d="M102 496v112h146q-2 23 -2 48.5v50.5v37.5t2 37.5h-146v113h160q18 111 62.5 206t116 164.5t171 108.5t228.5 39q98 0 176 -18.5t137 -45t103 -57t75 -53.5l-67 -149q-98 78 -196.5 113.5t-197.5 35.5q-90 0 -155.5 -26.5t-113.5 -72.5t-77.5 -109.5t-44.5 -135.5h402 l-17 -113h-411q-2 -18 -2 -37.5v-37.5v-49.5t4 -49.5h426l-17 -112h-381q16 -72 47 -133.5t78 -108.5t111.5 -73.5t150.5 -26.5q98 0 196.5 34.5t197.5 112.5l67 -147q-31 -25 -75 -54.5t-103 -56.5t-137 -45t-176 -18q-127 0 -225.5 38.5t-169 108.5t-114.5 164t-65 205 h-164z" />
<glyph unicode="&#x2122;" horiz-adv-x="1617" d="M82 1290v103h541v-103h-215v-602h-113v602h-213zM795 688v705h155l215 -519h4l211 519h156v-705h-113v510h-4l-215 -510h-90l-209 510h-4v-510h-106z" />
<glyph unicode="&#x25fc;" horiz-adv-x="1024" d="M0 0v1024h1024v-1024h-1024z" />
</font>
</defs>
</svg>
